<?xml version="1.0" encoding="utf-8"?>
<!-- Generator: Adobe Illustrator 16.0.0, SVG Export Plug-In . SVG Version: 6.00 Build 0)  -->
<!DOCTYPE svg PUBLIC "-//W3C//DTD SVG 1.1//EN" "http://www.w3.org/Graphics/SVG/1.1/DTD/svg11.dtd">
<svg version="1.1" id="Layer_1" xmlns="http://www.w3.org/2000/svg" xmlns:xlink="http://www.w3.org/1999/xlink" x="0px" y="0px"
	 width="302.782px" height="312.607px" viewBox="0 0 302.782 312.607" enable-background="new 0 0 302.782 312.607"
	 xml:space="preserve">
<g>
	<g>
		<path fill="#494949" d="M208.881,293.034c-0.001,0-0.003,0.002-0.021,0.006c-17.415,6.752-24.134,7.795-26.213,7.931
			c-0.028-0.076-0.066-0.181-0.094-0.257c6.919-4.659,6.919-4.659,7.108-5.108c0.716-1.709-2.69-1.791-7.593-0.181
			c-2.736,0.896-16.659,8.113-16.8,8.188c0.001,0,0.003,0,0.02,0c-0.024,0.029-0.058,0.068-0.082,0.1
			c0.491,0.054,0.985-0.018,1.477,0.021c-0.319,0.059-0.495,0.092-1.458,0.178c1.611-0.137,1.611-0.137,4.584-0.449
			c2.183-0.25,2.183-0.25,6.437-0.871c3.728-0.594,3.976-0.646,10.337-1.991c9.437-2.33,11.172-2.945,20.807-6.363l2.304-0.914
			c3.97-1.648,4.336-1.926,4.844-2.307c-0.08,0.01-0.188,0.026-0.267,0.039C213.889,291.159,213.1,291.382,208.881,293.034z"/>
		<path fill="#494949" d="M141.113,294.716c-0.918,0.005-3.358,0.013-4.919,1.228c-0.004,0-0.009,0-0.05-0.002
			c-1.718,1.549,1.13,4.979-1.544,5.635c-2.3,0.564-7.903-0.773-12.38-2.215c-5.416-1.742-10.564-4.211-16.009-5.869
			c-3.389-1.033-3.822-0.594-4.138-0.271c0.992,2.225,12.604,7.159,27.845,9.534c0,0,0.001,0,0.014,0.002
			c2.835,0.443,7.893,0.984,9.971,1.175l1.105,0.086c0.931,0.069,1.136,0.084,3.095,0.198c0.53,0.027,1.237,0.062,1.767,0.087
			c-0.279-0.021-0.651-0.099-0.911-0.205c1.496-0.394,3.087,0.143,4.561-0.472c1.509-0.627,1.871-1.772,1.956-2.235
			C151.933,298.907,148.587,295.21,141.113,294.716z"/>
		<path fill="#494949" d="M228.18,283.048c0.001,0,0.003,0,0.024-0.004c-0.329,0.287-0.33,0.381-0.332,0.699
			c0.385,0.023,0.755-0.156,1.144-0.082c-0.177,0.195-0.47,0.402-0.689,0.551c9.463-5.625,10.189-6.19,22.315-15.646
			c8.57-7.689,9.023-9.611,8.958-10.021C259.069,255.268,230.159,280.491,228.18,283.048z"/>
		<path fill="#494949" d="M178.545,291.098c7.335-3.695,15.904-2.806,23.297-6.279c0.388-0.185,0.911-0.418,1.291-0.615
			c1.583-0.822,6.399-3.33,10.582-7.586c5.792-5.896,8.28-14.217-2.111-14.506c-3.328,0.24-6.657,1.275-9.897,3.082
			c-0.007,0-0.014,0-0.081,0.002c-8.802,5.006-15.666,13.336-26.244,15.295c-4.325,0.801-12.706,0.996-20.25-6.688
			c-4.75-4.839-14.631-14.904-26.793-8.63c-10.34,5.332-4.39,17.968,7.159,21.873c0.005,0,0.011,0,0.068,0.002
			c6.731,3.617,15.47-0.562,21.559,5.552c3.816,3.832,3.889,3.903-4.234,11.842l0.556-0.004c0.545,0,1.201-0.012,2.506-0.037
			c0.402-0.008,0.94-0.023,1.344-0.035c0.807-0.031,2.155-0.084,4.104-0.545c0.003-0.002,0.006-0.002,0.038-0.01
			c2.387-0.707,2.806-1.002,4.972-3.484C171.024,295.038,177.33,291.71,178.545,291.098z"/>
		<path fill="#494949" d="M125.648,302.093l1.521,0.263c-0.658-0.109-1.311-0.228-1.96-0.349
			C125.358,302.036,125.494,302.063,125.648,302.093z"/>
		<path fill="#494949" d="M125.209,302.007c-0.759-0.139-1.511-0.289-2.257-0.44C123.615,301.694,124.36,301.843,125.209,302.007z"
			/>
		<path fill="#494949" d="M86.941,286.083c0.058-0.151,0.136-0.354,0.194-0.508c1.866-0.805,5.291,1.336,5.838-1.449
			c0.417-2.125-2.301-5.994-3.959-8.112c-3.066-3.918-13.158-14.438-22.917-16.06c-1.077-0.049-3.314-0.147-3.625,2.209
			c-0.003,0-0.009,0-0.05-0.006c-0.048,5.271,5.872,7.939,5.774,13.232c-2.205,1.692-11.706-4.668-23.643-15.828
			c12.458,12.194,19.798,16.905,30.906,24.039c10.694,5.971,20.774,10.461,30.819,13.729l8.161,2.34
			c3.473,0.877,4.417,1.097,8.513,1.896C103.671,297.63,88.731,289.907,86.941,286.083z"/>
		<path fill="#494949" d="M287.415,211.216c-1.499,0.322-3.381,1.716-5.595,4.14c-0.003,0-0.007,0.002-0.042,0.006
			c-4.5,4.967-7.9,10.836-12.75,15.516c-5.082,4.902-7.521,5.771-10.346,6.771c-3.877,1.373-10.856,2.018-14.039-9.123
			c-2.326-8.146-4.963-17.375-18.567-12.822c-17.94,6.004-23.986,28.756-12.676,34.65c0.006,0,0.014,0,0.083-0.002
			c0.009,0.016,1.418,1.508,6.953,1.569c7.317,0.082,10.834,0.754,12.338,4.515c1.03,2.578,0.38,9.766-9.457,18.516
			c-3.694,3.285-8.084,6.115-10.444,7.635c-0.148,0.097-14.95,10.179-15.629,12.787c1.919,0.775,14.06-3.727,23.596-9.887
			c0.006-0.006,0.014-0.01,0.083-0.055c1.479-0.994,2.578-1.755,4.336-3.175c10.426-8.424,18.567-19.258,29.093-27.577
			c4.995-3.949,11.555-5.191,16.355-9.474c4.929-4.395,9.386-11.285,11.073-14.045C286.565,223.343,291.662,211.6,287.415,211.216z"
			/>
		<path fill="#494949" d="M119.283,253.483c7.24-1.922,15.116,0.033,22.07-3.627c7.547-3.974,9.428-9.972,9.877-13.191
			c1.138-8.156-5.406-20.778-23.064-21.969c-1.883,0.039-7.613,0.156-12.519,3.703c-0.01,0-0.02,0-0.116-0.002
			c-7.504,5.703-8.585,17.449-19.112,20.307c-6.637,1.801-16.886,1.959-28.017-7.516c-5.075-4.316-8.634-10.179-14.214-13.982
			c-2.187-1.492-7.309-4.983-11.679-3.678c-11.751,3.522-1.078,26.729,13.01,34.365c0.004,0,0.009,0,0.058,0.006
			c0.02,0.018,2.271,1.682,6.846,2.295c5.764,0.775,12.939,1.738,23.724,11.33c9.029,8.031,12.193,14.625,14.268,20.555
			c0.502,1.437,1.596,3.504,5.632,6.773c0.314,0.254,0.748,0.576,1.076,0.813c5.083,3.683,11.955,6.392,15.661,6.888
			c6.072,0.812,5.266-3.771,1.945-8.375c-0.002-0.005-0.005-0.009-0.033-0.054c-5.055-6.52-14.127-9.771-15.6-19.199
			C107.826,260.809,111.254,255.614,119.283,253.483z"/>
		<path fill="#494949" d="M299.944,151.871c-6.447-1.354-13.365,33.028-8.411,41.808c0.002,0,0.006,0,0.039-0.005
			c0.266,3.123,4.968,1.148,5.087,4.283c0.124,3.229-2.133,9.388-3.814,13.49c1.009-2.387,1.974-4.803,2.863-7.25
			c1.052-2.895,2.018-5.832,2.894-8.807c0.877-2.976,1.667-5.988,2.365-9.037c0.698-3.051,1.304-6.136,1.815-9.252
			C302.807,176.862,304.939,152.92,299.944,151.871z"/>
		<path fill="#494949" d="M292.844,211.448c-0.183,0.436-0.355,0.873-0.542,1.303C292.472,212.35,292.656,211.911,292.844,211.448z"
			/>
		<path fill="#494949" d="M217.999,199.425c7.746-2.454,16.438-0.881,23.661-5.561c5.492-3.557,9.579-9.854,10.933-16.842
			c1.529-7.896-0.696-24.63-17.335-25.953c-1.675,0.062-6.773,0.258-11.931,4.515c-0.009,0-0.02,0-0.115,0.001
			c-10.477,8.871-16.084,23.473-31.388,26.664c-3.302,0.688-20.493,3.303-34.712-12.883c-11.104-12.64-19.874-22.622-36.4-15.596
			c-18.769,7.98-18.32,34.458,0.715,42.284c0.011,0,0.021,0,0.127,0c0.021,0.021,3.023,2.116,11.882,2.538
			c9.888,0.47,24.83,1.177,32.748,14.023c7.978,12.943,3.443,22.371-2.646,30.633c-6.744,9.146-2.64,16.676-1.749,18.094
			c8.178,13,31.2,6.439,35.191-10.028c0.002-0.008,0.004-0.017,0.025-0.086c1.668-9.97-5.631-19.472-1.54-29.562
			C198.667,213.762,205.177,203.493,217.999,199.425z"/>
		<path fill="#494949" d="M46.268,247.466c-0.005-0.006-0.01-0.012-0.057-0.082c-14.343-19.682-30.599-41.987-16.579-49.764
			c4.671-2.592,10.817-0.231,14.999-4.469c4.671-4.73,5.591-11.488,5.539-16.326c-0.105-9.682-5.535-24.555-16.856-25.731
			c-1.31,0.07-4.788,0.255-7.82,4.355c-0.006,0-0.011,0-0.069,0c-4.765,6.752-4.039,15.715-9.009,22.383
			c-1.215,1.631-5.564,6.338-10.544-1.541C1.145,168.817,1.995,160.005,0,151.874v0.342c0.408,19.689,2.286,27.232,6.027,42.266
			c4.258,5.127,17.631,32.84,17.766,33.117c16.735,34.812,29.705,35.479,29.828,35.473
			C54.375,261.934,54.432,259.081,46.268,247.466z"/>
		<path fill="#494949" d="M299.91,133.566c0.896-2.221,1.286-7.898-0.57-16.596c-1.734-8.123-6.458-21.633-11.747-23.3
			c-0.685-0.017-1.961-0.044-2.772,3.313c-0.003,0-0.007-0.001-0.043-0.004c-1.047,5.275-0.181,10.733-1.518,15.983
			c-0.796,3.129-3.062,5.601-4.105,6.103c-3.879,1.868-11.997,3.259-22.786-8.407c-19.631-21.226-20.005-21.632-29.522-18.364
			c-16.239,5.574-14.278,32.396,2.996,40.999c0.01,0,0.018,0,0.104,0c0.014,0.021,2.687,2.216,9.973,2.678
			c30.025,1.903,28.033,29.025,27.329,34.441c-1.054,8.109-4.308,13.76-7.179,18.746c-2.993,5.193-7.809,19.336-2.623,27.508
			c5.618,8.853,20.197-0.119,24.884-19.295c0.003-0.01,0.005-0.02,0.03-0.113c3.721-18.475-3.799-38.383,7.141-55.935
			C291.958,137.381,298.013,138.263,299.91,133.566z"/>
		<path fill="#494949" d="M43.772,92.892c-15.192,1.76-24.685,31.646-13.022,40.999c0.005,0,0.012,0,0.074-0.002
			c0.006,0.021,1.418,2.112,6.908,2.442c7.517,0.448,17.811,1.064,24.876,19.935c5.307,14.174,1.383,25.445-0.725,31.502
			c-2.729,7.84-0.553,14.813,0.988,18.272c0.239,0.539,0.597,1.234,0.856,1.765c0.272,0.549,2.804,5.487,8.142,9.381
			c13.385,9.758,31.075,1.625,28.066-18.056c-0.001-0.01-0.001-0.02-0.012-0.116c-2.827-12.601-13.717-22.688-11.465-36.867
			c0.73-4.603,4.428-20.017,21.311-25.117c9.461-2.857,19.907-0.687,28.948-5.681c9.894-5.467,12.003-13.846,12.452-17.193
			c1.256-9.388-5.064-23.022-23.043-23.942c-2.086,0.08-7.627,0.291-13.358,4.048c-0.01,0-0.02,0-0.119,0.002
			c-10.064,6.873-15.63,18.915-27.395,23.836c-0.132,0.056-14.153,4.802-23.79-2.428C55.246,109.505,57.871,91.259,43.772,92.892z"
			/>
		<path fill="#494949" d="M278.467,76.855c0.002,0,0.005,0.001,0.036,0.005c0.012,0.019,1.858,1.857,4.05,2.533
			c1.941,0.597,5.499,1.691,11.736,17.13c-0.911-2.317-1.863-4.615-2.883-6.876c-1.258-2.787-2.597-5.527-4.015-8.222
			c-1.417-2.691-2.912-5.334-4.483-7.926c-1.57-2.59-3.213-5.131-4.93-7.615c-6.589-9.266-17.296-20.697-19.932-20.333
			C254.016,46.109,270.922,70.765,278.467,76.855z"/>
		<path fill="#494949" d="M212.69,76.418c6.368-1.967,13.671,0.679,19.5-3.951c3.309-2.629,4.076-7.66,2.002-13.131
			c-2.616-6.902-11.59-17.188-23.35-18.437c-2.156-0.018-4.67,0.162-7.228,2.496c-0.006-0.001-0.014-0.001-0.083-0.003
			c-3.947,4.148-4.553,10.311-8.646,14.371c-0.764,0.756-3.232,2.641-9.652,3.777c-0.676,0.12-16.709,2.794-29.341-9.701
			c-8.906-8.811-15.341-15.173-28.252-9.282c-15.211,6.94-17.127,24.842-3.254,30.404c0.009,0,0.02,0,0.113-0.001
			c0.011,0.019,2.429,1.776,10.495,2.033c8.627,0.271,28.832,0.909,35.694,21.512c5.991,17.992-15.487,33.294-5.057,51.721
			c0.52,0.919,2.382,3.442,4.526,5.389c15.256,13.842,41.246,4.395,39.188-19.694c0-0.01-0.001-0.021-0.005-0.125
			c-2.018-12.744-12.761-22.611-11.962-36.285C197.416,96.829,198.514,80.798,212.69,76.418z"/>
		<path fill="#494949" d="M18.954,134.813c0-0.01,0.001-0.021,0.012-0.12c0.317-7.543-0.813-15.073-0.188-22.619
			c0.352-4.244,2.366-9.828,3.028-11.663c0.058-0.159,6.218-16.102,17.221-21.323c5.323-2.525,11.597-2.112,16.669-5.406
			c6.808-4.423,10.956-10.513,12.823-13.747c3.169-5.495,7.004-16.85-1.365-16.876c-0.991,0.129-3.625,0.473-7.98,3.362
			c-0.004,0.001-0.009,0.001-0.052,0.005c-1.493,1.02-3.54,2.413-7.559,6.23c-7.896,7.502-14.132,13.428-18.713,14.089
			c-3.167,0.458-4.636-1.984,6.356-16.221c-10.743,12.166-15.565,20.5-21.671,31.052c0.353,1.854-2.594,15.249-10.254,39.211
			c-8.496,26.578-0.548,37.505-0.462,37.602C10.732,162.667,17.553,154.654,18.954,134.813z"/>
		<path fill="#494949" d="M215.683,14.697c6.805,4.755,10.912,7.624,10.227,9.909c-4.567,1.886-15.912-4.312-23.419-8.415
			c-10.966-5.99-15.067-5.604-16.322-5.157c-5.573,1.979,3.277,14.84,15.304,19.35c0.005,0,0.012,0.001,0.07,0.002
			c0.012,0.014,2.483,1.29,7.355,1.747c22.862,2.151,35.003,22.521,36.839,29.699c1.908,7.46,1.494,15.468,5.317,22.475
			c4.772,8.742,11.095,13.468,15.059,14.857c7.601,2.665,13.855-4.098,5.956-20.362c-0.004-0.009-0.009-0.017-0.049-0.101
			c-4.392-8.208-10.994-14.783-16.42-22.226c-15.487-21.239-9.759-21.064-7.876-21.01c0.073-0.118,0.169-0.276,0.242-0.396
			c-1.463-2.806-8.906-8.003-11.152-9.528c-9.509-6.46-19.259-11.05-22.134-11.966c-0.065,0.052-0.153,0.12-0.219,0.173
			c0.478,0.397,0.577,0.481,1.246,0.951C215.704,14.701,215.703,14.701,215.683,14.697z"/>
		<path fill="#494949" d="M67.946,77.547c-0.854,2.413-3.455,9.753,0.993,15.897c7.829,10.813,31.936,4.423,35.195-17.266
			c0.002-0.01,0.002-0.019,0.02-0.104c0.539-8.43-5.507-16.453-1.541-25.094c2.071-4.513,8.335-15.384,21.735-18.896
			c6.295-1.648,13.059-0.671,19.157-3.424c4.347-1.962,7.282-5.24,7.852-8.768c0.509-3.147-1.343-9.735-10.314-10.003
			c-0.945,0.041-3.457,0.149-6.727,1.622c-0.005,0-0.01,0-0.057,0.001c-8.597,3.976-15.486,11.629-25.777,11.949
			c-6.083,0.188-6.899-1.676-7.337-2.678c-1.528-3.494,3.766-4.913,2.529-8.319c-0.126-0.058-0.286-0.159-0.42-0.193
			c-5.375-1.411-32.701,14.642-29.583,20.583c0.003,0,0.008-0.001,0.048-0.005c-0.012,0.018-0.027,0.038-0.04,0.057
			c3.442,3.419,10.546-1.429,12.413,4.512c0.817,2.601,2.008,9.795-4.56,20.472C77.354,64.684,70.701,69.769,67.946,77.547z"/>
		<path fill="#494949" d="M66.777,26.359c-0.956,0.655-2.22,1.546-3.165,2.218l6.394-4.376
			C69.034,24.842,67.739,25.701,66.777,26.359z"/>
		<path fill="#494949" d="M181.097,2.689c0.462,0.097,0.969,0.199,1.494,0.307C182.093,2.893,181.603,2.787,181.097,2.689z"/>
		<path fill="#494949" d="M202.354,8.359c-1.352-0.445-2.725-0.825-4.078-1.267c-0.012-0.002-0.014-0.002-0.015-0.003
			c-2.2-0.668-5.615-1.704-9.701-2.732c4.465,1.191,9.781,2.733,13.874,4.028C202.41,8.378,202.377,8.366,202.354,8.359z"/>
		<path fill="#494949" d="M186.584,3.838c-0.801-0.183-1.738-0.378-2.677-0.572c1.623,0.353,3.179,0.721,4.652,1.091
			C187.879,4.176,187.219,4.001,186.584,3.838z"/>
		<path fill="#494949" d="M141.905,4.419c0.002,0,0.006,0,0.04-0.001c-0.001,0.007-0.004,0.017-0.005,0.021
			c4.672,1.622,10.085-0.021,14.376,3.271c2.003,1.539,7.325,5.624,5.651,12.104c-0.766,2.967-2.978,5.319-3.53,8.375
			c-0.093,0.514-0.491,3.24,0.821,6.569c1.43,3.626,5.87,8.148,12.569,10.076c10.538,3.032,22.692-2.484,16.675-14.489
			c-0.003-0.006-0.005-0.013-0.033-0.07c-4.246-7.07-12.447-11-15.264-19.205c-0.328-0.956-0.942-3.849-0.019-4.709
			c1.915-1.784,4.527-0.315,6.588-1.416c0.233-1.465-6.092-2.996-6.813-3.167c-4.061-0.953-7.867-1.26-9.299-1.375
			c-0.607-0.044-1.417-0.096-2.025-0.135c-0.853-0.047-1.99-0.104-2.842-0.145c2.049,0.104,3.322,0.471,3.782,1.083
			c-0.452,0.957-5.608,0.917-10.088-0.811c-0.958-0.369-0.958-0.369-1.427-0.397l-0.091,0.001c-0.477,0.005-1.114,0.017-1.591,0.022
			c-0.424,0.01-0.99,0.023-1.414,0.034c-3.203,0.104-5.114,0.948-5.623,1.207C140.217,2.335,140.025,3.72,141.905,4.419z"/>
		<path fill="#494949" d="M65.307,34.217c0.006-0.006,0.012-0.012,0.074-0.07c17.51-17.712,26.944-23.339,64.625-32.117
			c3.938-0.917,6.168-1.158,8.135-1.371l-0.853,0.081c-1.588,0.156-1.588,0.156-4.806,0.553c-1.448,0.196-3.375,0.487-4.82,0.709
			c-4.266,0.741-6.043,1.088-11.316,2.292l-1.908,0.477c-7.724,2.053-8.824,2.461-19.341,6.369
			C70.771,21.189,42.81,43.533,42.925,50.525C44.953,52.209,53.318,46.114,65.307,34.217z"/>
		<path fill="#494949" d="M210.769,15.045c0.087-0.113,0.202-0.267,0.29-0.38c-0.91-1.471-3.75-3.255-8.441-5.308
			c-0.496-0.217-2.319-0.999-4.951-1.965c-0.007-0.003-0.016-0.005-0.092-0.034c-9.421-3.346-17.926-5.015-23.402-5.823
			c-1.306-0.182-3.052-0.396-4.361-0.56l-2.007-0.215c10.961,1.178,15.154,3.125,25.283,7.83
			C205.041,14.144,208.419,15.122,210.769,15.045z"/>
		<path fill="#494949" d="M113.187,11.853c-0.649,3.546,9.9,2.186,18.566-4.601c0.46-0.36,0.46-0.36,2.087-1.797
			c0.003-0.003,0.005-0.005,0.036-0.031c4.489-4.248,5.066-4.793,11.248-5.258L144.1,0.22c-0.779,0.044-1.818,0.109-2.597,0.162
			C131.5,1.157,114.076,7.001,113.187,11.853z"/>
		<path fill="#494949" d="M156.079,0.036l-0.124-0.003c-0.621-0.014-1.448-0.024-2.069-0.033c0.741,0.013,1.48,0.068,2.223,0.038
			C156.1,0.037,156.087,0.037,156.079,0.036z"/>
	</g>
</g>
</svg>
