<?xml version="1.0" encoding="utf-8" ?>
<!-- Generator: Adobe Illustrator 16.0.0, SVG Export Plug-In . SVG Version: 6.00 Build 0)  -->
<!DOCTYPE svg PUBLIC "-//W3C//DTD SVG 1.1//EN" "http://www.w3.org/Graphics/SVG/1.1/DTD/svg11.dtd">
<svg version="1.1" id="Layer_1" xmlns="http://www.w3.org/2000/svg" xmlns:xlink="http://www.w3.org/1999/xlink" x="0px" y="0px" width="335px" height="333px" viewBox="0 0 335 333" enable-background="new 0 0 335 333" xml:space="preserve">
	<path fill="#B03E64" d="M203.682,318.984c5.254-1.781,8.936-1.644,8.164,0.195c-0.203,0.48,0.35,4.2-7.07,5.944
	C170.154,333.266,196.555,321.402,203.682,318.984z" />
	<path fill="#34789A" d="M166.792,326.052c-0.092,0.498-0.481,1.73-2.103,2.404c-1.584,0.657-5.254,0.664-5.824,0.634
	c-2.105-0.124-2.326-0.137-3.327-0.213l-1.188-0.093c-2.234-0.204-4.132-0.528-5.701-2.533c-1.77-2.263-0.187-4.392,1.66-6.056
	c0.045,0,0.05,0,0.054,0c1.679-1.307,4.302-1.314,5.289-1.317C163.689,319.406,167.286,323.384,166.792,326.052" />
	<path fill="#655C9A" d="M233.707,299.418c-4.496,4.577-9.676,7.271-11.377,8.156c-0.409,0.213-0.971,0.466-1.389,0.662
	c-7.947,3.736-17.16,2.777-25.045,6.75c-1.311,0.66-8.086,4.236-13.045,9.922c-2.33,2.67-5.385,3.754-5.389,3.755
	c-2.094,0.496-3.545,0.553-4.411,0.587c-0.434,0.012-1.012,0.039-1.442,0.039c-3.819,0,5.361-8.568,1.26-12.688
	c-6.546-6.57-15.94-2.078-23.177-5.97c-0.061-0.001-0.066-0.001-0.073-0.002c-12.415-4.196-18.812-17.778-7.696-23.515
	c13.075-6.746,23.699,4.074,28.806,9.275c8.107,8.262,17.119,8.051,21.77,7.189c11.372-2.105,18.751-11.062,28.215-16.441
	c0.071-0.003,0.078-0.003,0.086-0.004c3.48-1.939,7.062-3.055,10.641-3.312C242.607,284.136,239.934,293.08,233.707,299.418" />
	<path fill="#F75922" d="M99.645,298.771c1.782,2.275,4.705,6.438,4.256,8.724c-0.587,2.989-7.359,5.899-18.828-0.565
	c-22.82-12.863-20.52-21.562-14.018-23.053c0.044-0.01,0.049,0.006,0.054,0.006C77.454,282.964,91.854,290.402,99.645,298.771" />
	<path fill="#34789A" d="M309.859,247.311c-1.814,2.967-7.508,13.03-12.805,17.754c-5.16,4.604-12.933,8.655-18.302,12.899
	c-3.419,2.702-20.161,23.894-35.562,32.987c-10.51,6.207-26.281,10.872-25.439,7.443c0.691-2.816,14.891-12.461,15.051-12.562
	c2.533-1.634,7.256-4.675,11.227-8.208c10.574-9.408,11.272-17.134,10.166-19.904c-1.617-4.043-5.398-4.765-13.264-4.853
	c-5.951-0.067-7.469-1.674-7.478-1.689c-0.074,0.004-0.082,0.004-0.089,0.004c-12.158-6.34-5.659-30.799,13.627-37.253
	c14.625-4.895,17.461,5.029,19.961,13.785c3.422,11.976,10.924,11.285,15.092,9.808c3.037-1.075,5.66-2.006,11.123-7.275
	c5.213-5.03,8.869-11.341,13.707-16.682c0.037-0.004,0.041-0.004,0.045-0.004c2.381-2.606,4.367-4.449,6.016-4.449
	C318.357,229.109,315,238.907,309.859,247.311z" />
	<path fill="#B03E64" d="M166.53,256.47c-0.483,3.464-2.504,9.91-10.619,14.183c-7.476,3.937-15.943,1.832-23.726,3.897
	c-8.631,2.291-12.316,7.877-10.954,16.604c1.583,10.136,10.805,18.744,16.238,25.752c0.03,0.047,0.033,0.052,0.036,0.056
	c3.569,4.949,4.437,9.877-2.091,9.004c-3.984-0.532-25.825-3.134-24.047-15.562c0.956-6.687,0.139-16.357-14.805-27.207
	c-12.557-9.116-19.308-11.348-25.505-12.182c-4.919-0.66-7.339-2.449-7.36-2.469c-0.051-0.004-0.056-0.005-0.062-0.005
	c-15.146-8.208-26.62-33.158-13.987-36.942c4.698-1.408,10.205,2.348,12.556,3.949c5.999,4.094,9.825,10.393,15.281,15.035
	c11.967,10.186,22.984,10.016,30.12,8.077c11.316-3.071,12.479-15.699,20.546-21.829c0.104,0.001,0.115,0.001,0.125,0.001
	c5.274-3.812,11.433-3.938,13.458-3.979C160.717,234.13,167.752,247.7,166.53,256.47" />
	<path fill="#33749A" d="M317.364,210.257c-2.562-11.173,2.11-46.401,9.042-44.946c5.371,1.128,5.227,19.602,1.1,37.072
	c-0.771,3.272-1.508,6.545-2.543,9.717C323.59,216.311,318.557,215.461,317.364,210.257z" />
	<path fill="#68B7E0" d="M275.502,192.352c-1.456,7.516-5.85,14.282-11.754,18.105c-7.766,5.029-17.109,3.337-25.438,5.979
	c-13.785,4.371-20.783,15.414-24.227,23.906c-4.396,10.854,3.449,21.066,1.656,31.783c-0.022,0.077-0.024,0.084-0.027,0.092
	c-4.289,17.705-29.04,24.758-37.832,10.781c-0.958-1.523-5.367-9.617,1.883-19.451c6.545-8.88,11.42-19.015,2.844-32.931
	c-8.515-13.813-24.576-14.573-35.208-15.077c-9.524-0.451-12.751-2.706-12.774-2.729c-0.113,0-0.125-0.002-0.136-0.002
	c-20.465-8.412-20.946-36.875-0.769-45.457c17.766-7.556,27.194,3.179,39.13,16.767c15.285,17.399,33.77,14.59,37.316,13.85
	c16.452-3.43,22.48-19.128,33.744-28.665c0.104-0.001,0.113-0.001,0.123-0.001c5.545-4.575,11.025-4.784,12.826-4.853
	C274.752,165.872,277.145,183.861,275.502,192.352" />
	<path fill="#DE1515" d="M57.883,192.139c0.056,5.2-0.931,12.467-5.954,17.553c-4.496,4.555-11.102,2.02-16.125,4.805
	c-15.072,8.357-2.651,25.361,12.768,46.521c0.051,0.074,11.782,13.377,7.182,13.377c-11.525,0-32.5-23.933-45.326-63.273
	c-5.161-15.831-5.249-27.587-0.168-19.553c5.354,8.469,10.03,3.408,11.336,1.656c5.343-7.172,4.563-16.806,9.685-24.063
	c0.062,0,0.067,0,0.074,0c3.26-4.408,7-4.606,8.407-4.682C51.933,165.742,57.771,181.73,57.883,192.139" />
	<path fill="#2D9250" d="M325.756,127.791c1.996,9.349,1.578,15.454,0.615,17.841c-2.041,5.05-8.549,4.102-11.191,8.342
	c-11.762,18.87-3.678,40.272-7.678,60.133c-0.027,0.103-0.029,0.11-0.032,0.121c-5.038,20.615-20.714,30.261-26.752,20.744
	c-5.575-8.785-0.397-23.988,2.82-29.574c3.087-5.359,6.585-11.435,7.718-20.151c0.757-5.824,2.898-34.98-29.381-37.027
	c-7.832-0.496-10.707-2.854-10.721-2.878c-0.094-0.001-0.104-0.001-0.113-0.001c-18.57-9.249-20.678-38.084-3.221-44.076
	c10.229-3.512,10.635-3.076,31.738,19.742c11.598,12.541,20.324,11.047,24.494,9.039c1.121-0.54,3.559-3.194,4.414-6.56
	c1.438-5.643,0.504-11.511,1.631-17.183c0.039,0.003,0.043,0.004,0.047,0.004c0.871-3.611,2.244-3.58,2.98-3.563
	C318.812,104.535,323.891,119.058,325.756,127.791" />
	<path fill="#F75D65" d="M166.463,124.764c-0.482,3.6-2.75,12.607-13.386,18.484c-9.72,5.37-20.95,3.034-31.121,6.107
	c-18.15,5.483-22.125,22.054-22.911,27.002c-2.421,15.242,9.288,26.09,12.326,39.634c0.011,0.104,0.012,0.114,0.013,0.126
	c3.235,21.158-15.783,29.9-30.173,19.408c-5.738-4.185-8.46-9.492-8.752-10.084c-0.279-0.566-0.664-1.316-0.921-1.896
	c-1.656-3.719-3.995-11.217-1.062-19.646c2.266-6.512,6.484-18.629,0.779-33.865c-7.595-20.285-18.662-20.947-26.743-21.431
	c-5.902-0.354-7.42-2.604-7.427-2.626c-0.065,0.002-0.072,0.002-0.079,0.002c-12.539-10.055-2.333-42.185,14-44.076
	c15.156-1.755,12.334,17.86,21.167,24.486c10.36,7.771,25.434,2.669,25.576,2.609c12.647-5.29,18.631-18.235,29.451-25.625
	c0.107-0.001,0.118-0.001,0.128-0.001c6.161-4.038,12.117-4.266,14.36-4.352C161.019,100.013,167.812,114.671,166.463,124.764" />
	<path fill="#36779F" d="M303.354,84.67c-2.688-2.638-27.647-32.807-21.992-33.658c2.83-0.426,14.345,11.898,21.429,21.859
	c1.846,2.671,3.692,5.355,5.301,8.187C324.105,109.255,306.104,87.365,303.354,84.67z" />
	<path fill="#F4E256" d="M255.721,65.83c2.229,5.881,1.403,11.29-2.154,14.116c-6.266,4.978-14.115,2.133-20.963,4.248
	c-15.242,4.709-16.42,21.943-16.463,22.675c-0.863,14.699,11.502,25.202,12.859,39.008c0.012,0.112,0.006,0.124,0.006,0.135
	c1.696,25.938-25.729,36.055-42.129,21.174c-2.305-2.092-4.307-4.806-4.865-5.792c-11.214-19.808,11.877-36.259,5.436-55.601
	c-7.377-22.149-29.095-22.835-38.371-23.127c-8.671-0.274-11.271-2.167-11.282-2.186c-0.102,0.001-0.112,0.001-0.122,0.001
	c-14.914-5.979-12.854-25.224,3.499-32.686c13.88-6.333,20.798,0.509,30.374,9.979c13.58,13.433,30.814,10.558,31.543,10.429
	c6.9-1.224,9.557-3.249,10.376-4.062c4.399-4.366,5.056-10.989,9.296-15.45c0.074,0.002,0.082,0.002,0.092,0.003
	c2.748-2.509,5.45-2.7,7.77-2.683C243.26,47.354,252.908,58.409,255.721,65.83" />
	<path fill="#DE1515" d="M77.611,66.473c-2.006,3.479-6.465,10.025-13.785,14.779c-5.454,3.541-12.2,3.096-17.921,5.812
	c-11.828,5.614-18.451,22.753-18.513,22.924c-0.712,1.973-2.877,7.977-3.256,12.538c-0.672,8.113,0.543,16.209,0.202,24.318
	c-0.011,0.107-0.012,0.118-0.013,0.129c-1.506,21.33-10.399,30.99-13.046,25.345C4.173,157.162,8.484,116.959,22.8,89.741
	c6.101-11.599,16.293-28.666,18.454-20.38c1.255,4.814,9.639-2.646,18.127-10.711c4.321-4.105,6.521-5.604,8.126-6.699
	c0.046-0.005,0.051-0.005,0.056-0.006c4.682-3.107,7.514-3.477,8.58-3.615C85.141,48.358,81.018,60.565,77.611,66.473" />
	<path fill="#76B340" d="M258.537,29.501c2.416,1.641,16.34,10.974,12.82,10.859c-3.002-0.098-9.271-0.438,7.377,22.396
	c5.834,8.001,12.932,15.069,17.652,23.893c0.043,0.092,0.049,0.101,0.053,0.109c8.489,17.485,1.77,24.755-6.403,21.89
	c-4.263-1.493-11.06-6.573-16.188-15.973c-4.111-7.532-3.666-16.142-5.718-24.161c-1.974-7.716-15.026-29.616-39.604-31.928
	c-5.235-0.492-7.895-1.865-7.904-1.878c-0.062-0.002-0.07-0.003-0.076-0.003c-12.93-4.849-22.441-18.677-16.453-20.803
	c1.352-0.479,5.76-0.896,17.549,5.545c8.069,4.41,24.518,12.917,25.178,9.047C247.245,25.965,245.057,19.862,258.537,29.501" />
	<path fill="#F75721" d="M166.667,23.43c-0.613,3.792-3.769,7.315-8.441,9.425c-6.556,2.959-13.827,1.907-20.595,3.681
	C123.226,40.311,116.491,52,114.265,56.85C110,66.138,116.5,74.764,115.92,83.825c-0.018,0.094-0.019,0.103-0.021,0.112
	c-3.504,23.316-29.42,30.188-37.836,18.562c-4.782-6.606-1.987-14.498-1.068-17.092c2.962-8.362,10.114-13.828,14.607-21.133
	c7.061-11.477,5.78-19.213,4.902-22.007c-2.007-6.386-12.511-3.945-14.924-6.856c-8.124-9.8,29.518-25.663,33.374-20.176
	c2.302,3.276-3.498,7.076-2.268,9.152c0.599,1.012,1.348,3.082,7.888,2.879c11.063-0.345,18.47-8.573,27.712-12.847
	c0.05-0.001,0.055-0.001,0.061-0.001c3.516-1.582,6.216-1.7,7.232-1.744C165.223,12.963,167.213,20.045,166.667,23.43" />
	<path fill="#895881" d="M221.577,11.057c-0.026-0.009-0.06-0.021-0.086-0.029" />
	<path fill="#E1AD3A" d="M197.217,7.356c-0.792,0.437-5.023-0.396-7.082,1.522c-0.992,0.926-0.333,4.034,0.02,5.062
	c3.029,8.822,11.847,13.046,16.41,20.647c0.029,0.062,0.031,0.069,0.035,0.075c6.469,12.906-6.599,18.838-17.928,15.578
	c-7.201-2.072-11.975-6.934-13.512-10.832c-1.41-3.58-0.982-6.513-0.883-7.063c0.594-3.284,2.972-5.815,3.795-9.003
	c1.799-6.966-3.922-11.357-6.075-13.012c-4.613-3.541-10.433-1.773-15.455-3.518c0.001-0.007,0.004-0.017,0.005-0.023
	c-0.036,0.001-0.04,0.001-0.043,0.001c-2.02-0.752-1.738-2.103,0.471-3.392C161.156,0.961,205.557,2.761,197.217,7.356z" />
	<path fill="#CC0033" d="M74.157,36.689C72.629,40.661,50.095,59.56,50.096,54.22C50.096,46.75,76.303,31.11,74.157,36.689z" />
	<path fill="#FFCF01" d="M238.348,18.09c5.043,2.206,0.209,10.072-21.895-6.576C204.785,2.726,238.348,18.09,238.348,18.09z" />
	<path fill="#E1AD3A" d="M145.592,9.838c-9.317,7.295-17.839,8.189-19.96,4.946c-6.769-10.346,30.223-13.724,22.243-6.911
	c-0.032,0.027-0.036,0.03-0.039,0.033C146.086,9.45,146.086,9.45,145.592,9.838" />
	<path fill="#5BC9E1" d="M171.742,2.08c0.01,0.001,0.023,0.001,0.033,0.002" />
	<path fill="#5BC9E1" d="M169.385,2.041" />
	<path fill="#5BC9E1" d="M171.775,2.082" />
</svg>
