<?xml version="1.0" encoding="utf-8"?>
<!-- Generator: Adobe Illustrator 16.0.0, SVG Export Plug-In . SVG Version: 6.00 Build 0)  -->
<!DOCTYPE svg PUBLIC "-//W3C//DTD SVG 1.1//EN" "http://www.w3.org/Graphics/SVG/1.1/DTD/svg11.dtd">
<svg version="1.1" id="Layer_1" xmlns="http://www.w3.org/2000/svg" xmlns:xlink="http://www.w3.org/1999/xlink" x="0px" y="0px"
	 width="100px" height="100px" viewBox="0 0 100 100" enable-background="new 0 0 100 100" xml:space="preserve">
<path fill="#FFF"  d="M66.96,91.711c0,0-0.001,0-0.007,0c-5.158,2.002-7.148,2.311-7.766,2.35c-0.008-0.021-0.019-0.053-0.027-0.074
	c2.051-1.381,2.051-1.381,2.105-1.514c0.213-0.508-0.797-0.531-2.248-0.053c-0.812,0.264-4.936,2.402-4.978,2.424
	c0.001,0,0.001,0,0.006,0c-0.007,0.01-0.017,0.021-0.024,0.029c0.146,0.018,0.293-0.006,0.438,0.006
	c-0.095,0.018-0.146,0.027-0.433,0.055c0.478-0.041,0.478-0.041,1.357-0.135c0.647-0.074,0.647-0.074,1.907-0.258
	c1.104-0.176,1.179-0.191,3.062-0.59c2.797-0.689,3.311-0.871,6.164-1.885l0.683-0.271c1.177-0.487,1.284-0.569,1.435-0.685
	c-0.023,0.003-0.056,0.009-0.078,0.013C68.443,91.154,68.21,91.221,66.96,91.711z M46.886,92.209
	c-0.272,0.002-0.995,0.004-1.457,0.363c-0.001,0-0.002,0-0.015,0c-0.509,0.457,0.334,1.475-0.458,1.668
	c-0.681,0.168-2.341-0.229-3.667-0.656c-1.604-0.516-3.129-1.246-4.742-1.738c-1.004-0.307-1.132-0.176-1.226-0.08
	c0.294,0.66,3.733,2.121,8.248,2.824c0,0,0,0,0.004,0.002c0.84,0.131,2.338,0.291,2.954,0.346l0.327,0.027
	c0.276,0.02,0.336,0.023,0.917,0.059c0.157,0.009,0.367,0.019,0.523,0.025c-0.083-0.008-0.193-0.029-0.27-0.061
	c0.443-0.117,0.915,0.041,1.351-0.141c0.447-0.187,0.554-0.525,0.58-0.662C50.091,93.449,49.1,92.355,46.886,92.209z M72.676,88.752
	c0,0,0.001,0,0.008,0c-0.098,0.084-0.099,0.111-0.099,0.207c0.113,0.006,0.224-0.047,0.339-0.025
	c-0.053,0.06-0.139,0.119-0.203,0.164c2.803-1.666,3.018-1.834,6.609-4.635c2.538-2.277,2.672-2.848,2.652-2.969
	C81.825,80.523,73.264,87.994,72.676,88.752z M57.975,91.137c2.172-1.094,4.711-0.83,6.9-1.859c0.115-0.055,0.27-0.125,0.383-0.182
	c0.469-0.244,1.895-0.988,3.135-2.248c1.715-1.746,2.451-4.211-0.627-4.297c-0.984,0.072-1.971,0.379-2.932,0.912
	c-0.001,0-0.003,0-0.021,0.002c-2.608,1.482-4.643,3.949-7.774,4.529c-1.281,0.238-3.765,0.295-5.998-1.98
	c-1.407-1.432-4.334-4.414-7.937-2.555c-3.062,1.578-1.3,5.322,2.121,6.479c0.001,0,0.003,0,0.021,0
	c1.994,1.072,4.583-0.166,6.386,1.646c1.131,1.135,1.152,1.156-1.254,3.508l0.165-0.002c0.162,0,0.356-0.002,0.743-0.01
	c0.119-0.004,0.277-0.009,0.396-0.013c0.239-0.008,0.639-0.024,1.217-0.159c0-0.003,0.002-0.003,0.012-0.005
	c0.706-0.209,0.83-0.297,1.472-1.03C55.746,92.305,57.613,91.318,57.975,91.137z M42.305,94.395l0.45,0.076
	c-0.195-0.031-0.388-0.066-0.58-0.104C42.219,94.377,42.259,94.385,42.305,94.395z M42.175,94.367
	c-0.225-0.039-0.448-0.084-0.668-0.129C41.703,94.275,41.924,94.318,42.175,94.367z M30.839,89.65
	c0.018-0.045,0.041-0.104,0.058-0.148c0.553-0.24,1.567,0.395,1.729-0.43c0.124-0.631-0.682-1.775-1.173-2.404
	c-0.908-1.16-3.897-4.275-6.788-4.756c-0.319-0.016-0.982-0.043-1.074,0.654c-0.001,0-0.003,0-0.015-0.002
	c-0.014,1.561,1.74,2.352,1.71,3.92c-0.653,0.5-3.467-1.383-7.003-4.689c3.69,3.611,5.865,5.008,9.155,7.121
	c3.167,1.768,6.153,3.1,9.129,4.066l2.418,0.692c1.028,0.261,1.308,0.324,2.521,0.562C35.795,93.072,31.37,90.783,30.839,89.65z
	 M90.223,67.475c-0.445,0.096-1.002,0.508-1.658,1.228c0,0,0,0-0.012,0.002c-1.332,1.471-2.341,3.209-3.775,4.596
	c-1.506,1.453-2.229,1.709-3.065,2.007c-1.147,0.405-3.215,0.598-4.157-2.703c-0.689-2.412-1.472-5.146-5.5-3.797
	c-5.314,1.776-7.104,8.518-3.756,10.262c0.002,0,0.004,0,0.025,0c0.002,0.006,0.42,0.447,2.06,0.465
	c2.166,0.025,3.209,0.223,3.654,1.338c0.305,0.764,0.11,2.893-2.802,5.484c-1.094,0.975-2.396,1.811-3.094,2.262
	c-0.045,0.029-4.43,3.016-4.629,3.787c0.566,0.229,4.163-1.104,6.988-2.928c0.002-0.002,0.004-0.004,0.023-0.019
	c0.438-0.293,0.765-0.519,1.285-0.938c3.088-2.494,5.5-5.705,8.617-8.168c1.479-1.17,3.422-1.539,4.844-2.808
	c1.461-1.303,2.78-3.342,3.28-4.16C89.971,71.066,91.48,67.59,90.223,67.475z M40.419,79.994c2.145-0.568,4.478,0.012,6.538-1.074
	c2.235-1.176,2.792-2.953,2.926-3.906c0.337-2.416-1.602-6.154-6.832-6.508c-0.558,0.012-2.255,0.047-3.708,1.098
	c-0.003,0-0.006,0-0.034-0.002c-2.223,1.689-2.543,5.17-5.661,6.017c-1.966,0.532-5.002,0.58-8.299-2.228
	c-1.503-1.279-2.558-3.016-4.21-4.141c-0.647-0.443-2.165-1.477-3.459-1.09c-3.481,1.043-0.319,7.918,3.854,10.18
	c0.001,0,0.003,0,0.017,0.002c0.006,0.004,0.673,0.496,2.028,0.68c1.708,0.229,3.833,0.515,7.028,3.355
	c2.674,2.379,3.611,4.332,4.226,6.088c0.149,0.426,0.473,1.037,1.668,2.008c0.093,0.074,0.222,0.17,0.319,0.24
	c1.506,1.09,3.541,1.893,4.639,2.039c1.798,0.24,1.56-1.115,0.576-2.48c0-0.002-0.001-0.002-0.01-0.016
	c-1.498-1.932-4.185-2.895-4.621-5.686C37.026,82.166,38.042,80.625,40.419,79.994z M93.934,49.896
	c-1.91-0.401-3.959,9.784-2.49,12.385c0,0,0.002,0,0.012-0.002c0.078,0.924,1.471,0.34,1.506,1.268
	c0.037,0.957-0.632,2.781-1.129,3.996c0.299-0.707,0.584-1.422,0.848-2.146c0.312-0.856,0.6-1.729,0.857-2.608
	c0.26-0.881,0.494-1.772,0.701-2.679c0.205-0.901,0.386-1.815,0.537-2.739C94.781,57.299,95.413,50.208,93.934,49.896z
	 M91.83,67.545c-0.055,0.127-0.105,0.258-0.16,0.385C91.721,67.811,91.773,67.682,91.83,67.545z M69.66,63.982
	c2.294-0.728,4.869-0.262,7.009-1.646c1.627-1.055,2.837-2.92,3.238-4.99c0.452-2.338-0.206-7.294-5.136-7.687
	c-0.496,0.018-2.006,0.076-3.533,1.337c-0.004,0-0.006,0-0.033,0c-3.104,2.626-4.766,6.953-9.299,7.898
	c-0.979,0.205-6.069,0.979-10.281-3.816c-3.29-3.744-5.887-6.7-10.782-4.619c-5.56,2.363-5.427,10.207,0.212,12.525
	c0.003,0,0.006,0,0.037,0c0.006,0.006,0.896,0.627,3.52,0.752c2.929,0.139,7.355,0.348,9.701,4.152
	c2.363,3.834,1.021,6.627-0.783,9.073c-1.998,2.711-0.782,4.94-0.518,5.358c2.422,3.853,9.24,1.908,10.424-2.969
	c0-0.004,0-0.006,0.006-0.024c0.494-2.953-1.668-5.771-0.455-8.759C63.934,68.23,65.861,65.188,69.66,63.982z M18.792,78.213
	c-0.001-0.002-0.003-0.004-0.017-0.025c-4.248-5.828-9.063-12.438-4.911-14.739c1.384-0.769,3.205-0.068,4.443-1.324
	c1.383-1.399,1.656-3.401,1.641-4.836c-0.031-2.867-1.64-7.272-4.993-7.621c-0.388,0.021-1.418,0.075-2.316,1.29
	c-0.002,0-0.003,0-0.021,0c-1.412,2.001-1.196,4.656-2.668,6.63c-0.36,0.483-1.648,1.877-3.124-0.455
	c-1.4-2.215-1.148-4.825-1.739-7.234V50c0.121,5.832,0.677,8.066,1.785,12.52c1.261,1.52,5.223,9.729,5.262,9.811
	c4.958,10.311,8.799,10.51,8.836,10.506C21.193,82.498,21.21,81.652,18.792,78.213z M93.924,44.474
	c0.266-0.658,0.381-2.339-0.169-4.916c-0.514-2.406-1.913-6.408-3.479-6.901c-0.202-0.005-0.58-0.013-0.82,0.981
	c-0.001,0-0.002,0-0.014-0.001c-0.311,1.563-0.053,3.18-0.449,4.735c-0.235,0.927-0.907,1.659-1.217,1.808
	c-1.147,0.553-3.553,0.965-6.748-2.49c-5.814-6.288-5.928-6.408-8.744-5.44c-4.812,1.651-4.23,9.596,0.887,12.145
	c0.003,0,0.006,0,0.03,0c0.005,0.006,0.797,0.656,2.954,0.793c8.895,0.564,8.304,8.597,8.096,10.203
	c-0.312,2.401-1.275,4.075-2.126,5.553c-0.888,1.539-2.313,5.727-0.778,8.147c1.666,2.621,5.983-0.034,7.371-5.715
	c0.001-0.004,0.002-0.006,0.01-0.035c1.103-5.473-1.125-11.368,2.115-16.568C91.568,45.604,93.361,45.866,93.924,44.474z
	 M18.053,32.426c-4.5,0.521-7.312,9.374-3.857,12.144c0.001,0,0.003,0,0.022,0c0.002,0.006,0.42,0.626,2.046,0.724
	c2.227,0.133,5.276,0.315,7.369,5.904c1.572,4.198,0.41,7.538-0.214,9.331c-0.809,2.322-0.164,4.39,0.292,5.412
	c0.07,0.16,0.177,0.367,0.253,0.523c0.081,0.162,0.831,1.625,2.412,2.779c3.965,2.889,9.205,0.48,8.313-5.348
	c0-0.004,0-0.008-0.004-0.035c-0.837-3.732-4.063-6.721-3.396-10.922c0.216-1.363,1.312-5.93,6.312-7.439
	c2.802-0.847,5.897-0.204,8.575-1.683c2.931-1.62,3.556-4.102,3.688-5.093c0.372-2.781-1.5-6.82-6.826-7.092
	c-0.618,0.023-2.259,0.086-3.957,1.199c-0.003,0-0.006,0-0.035,0.001c-2.981,2.036-4.63,5.603-8.115,7.061
	c-0.039,0.016-4.192,1.422-7.046-0.72C21.451,37.347,22.229,31.942,18.053,32.426z M87.57,27.676c0.002,0,0.003,0,0.012,0.001
	c0.004,0.005,0.55,0.55,1.199,0.75c0.574,0.177,1.629,0.501,3.478,5.074c-0.271-0.687-0.553-1.367-0.854-2.037
	c-0.372-0.826-0.77-1.637-1.188-2.435c-0.42-0.797-0.862-1.58-1.327-2.348c-0.466-0.767-0.953-1.52-1.461-2.256
	c-1.951-2.744-5.123-6.13-5.904-6.022C80.329,18.568,85.337,25.872,87.57,27.676z M68.088,27.546
	c1.887-0.583,4.051,0.201,5.775-1.17c0.98-0.779,1.207-2.269,0.594-3.89c-0.775-2.044-3.434-5.091-6.917-5.461
	c-0.638-0.005-1.383,0.048-2.142,0.739c-0.002,0-0.004,0-0.023-0.001c-1.17,1.229-1.35,3.054-2.562,4.257
	c-0.226,0.224-0.957,0.782-2.857,1.119c-0.2,0.036-4.949,0.828-8.691-2.873c-2.638-2.609-4.543-4.495-8.369-2.75
	c-4.505,2.056-5.073,7.359-0.963,9.006c0.002,0,0.005,0,0.033,0c0.003,0.005,0.72,0.526,3.108,0.602
	c2.556,0.081,8.54,0.27,10.573,6.372c1.773,5.329-4.588,9.862-1.498,15.32c0.153,0.272,0.705,1.02,1.34,1.596
	c4.52,4.102,12.218,1.302,11.609-5.833c0-0.003-0.002-0.006-0.002-0.038c-0.599-3.775-3.781-6.697-3.544-10.748
	C63.562,33.592,63.889,28.843,68.088,27.546z M10.701,44.843c0-0.002,0-0.006,0.003-0.035c0.094-2.234-0.241-4.465-0.056-6.7
	c0.104-1.257,0.701-2.911,0.897-3.455c0.017-0.047,1.842-4.77,5.101-6.316c1.577-0.749,3.436-0.626,4.938-1.602
	c2.017-1.31,3.246-3.114,3.798-4.072c0.939-1.627,2.075-4.991-0.404-4.999c-0.293,0.039-1.073,0.14-2.364,0.996
	c-0.001,0-0.002,0-0.015,0.001c-0.442,0.302-1.049,0.715-2.239,1.846c-2.339,2.222-4.186,3.978-5.543,4.173
	c-0.938,0.135-1.373-0.588,1.883-4.805c-3.182,3.604-4.61,6.072-6.419,9.197c0.104,0.549-0.769,4.517-3.038,11.615
	c-2.517,7.872-0.163,11.11-0.137,11.137C8.266,53.094,10.286,50.721,10.701,44.843z M68.975,9.264
	c2.017,1.408,3.231,2.258,3.029,2.935c-1.354,0.559-4.714-1.277-6.938-2.493c-3.248-1.774-4.463-1.659-4.834-1.527
	c-1.651,0.586,0.971,4.396,4.533,5.732c0,0,0.002,0,0.021,0c0.003,0.004,0.735,0.383,2.178,0.518
	c6.772,0.637,10.369,6.671,10.913,8.797c0.564,2.21,0.441,4.582,1.574,6.657c1.412,2.59,3.287,3.989,4.461,4.401
	c2.251,0.79,4.104-1.214,1.765-6.031c-0.001-0.003-0.003-0.005-0.015-0.03c-1.301-2.431-3.258-4.379-4.864-6.583
	c-4.588-6.292-2.891-6.24-2.333-6.224c0.021-0.035,0.051-0.082,0.072-0.117c-0.434-0.832-2.639-2.371-3.305-2.823
	c-2.815-1.913-5.705-3.273-6.556-3.544c-0.021,0.016-0.046,0.036-0.065,0.051c0.143,0.118,0.172,0.143,0.369,0.282
	C68.98,9.265,68.98,9.265,68.975,9.264z M25.213,27.881c-0.253,0.715-1.023,2.889,0.294,4.708c2.319,3.203,9.459,1.31,10.425-5.114
	c0-0.002,0-0.005,0.006-0.031c0.16-2.497-1.631-4.874-0.457-7.433c0.614-1.336,2.469-4.557,6.438-5.597
	c1.865-0.488,3.868-0.199,5.674-1.014c1.288-0.582,2.157-1.552,2.326-2.597c0.151-0.932-0.397-2.884-3.055-2.963
	c-0.28,0.012-1.024,0.044-1.993,0.48c-0.001,0-0.002,0-0.017,0c-2.546,1.177-4.587,3.444-7.635,3.539
	c-1.802,0.056-2.044-0.496-2.173-0.793c-0.453-1.035,1.116-1.456,0.749-2.464c-0.037-0.017-0.084-0.047-0.125-0.058
	c-1.592-0.418-9.687,4.337-8.763,6.098c0,0,0.002,0,0.014-0.002c-0.003,0.005-0.008,0.012-0.012,0.017
	c1.02,1.013,3.124-0.423,3.677,1.336c0.242,0.771,0.595,2.902-1.351,6.064C28,24.071,26.029,25.577,25.213,27.881z M24.867,12.718
	c-0.283,0.194-0.658,0.458-0.938,0.657l1.894-1.296C25.535,12.269,25.152,12.523,24.867,12.718z M58.729,5.707
	c0.138,0.029,0.287,0.059,0.442,0.091C59.023,5.768,58.879,5.736,58.729,5.707z M65.025,7.387c-0.399-0.132-0.808-0.245-1.207-0.375
	c-0.004,0-0.004,0-0.006,0c-0.65-0.198-1.662-0.505-2.873-0.81c1.322,0.353,2.897,0.81,4.109,1.193
	C65.042,7.392,65.033,7.389,65.025,7.387z M60.355,6.047c-0.237-0.054-0.517-0.112-0.795-0.169c0.48,0.104,0.942,0.213,1.379,0.323
	C60.738,6.147,60.543,6.096,60.355,6.047z M47.12,6.219c0,0,0.002,0,0.012,0c0,0.002,0,0.004-0.001,0.006
	c1.384,0.48,2.987-0.006,4.26,0.969c0.592,0.456,2.168,1.666,1.672,3.585c-0.227,0.879-0.881,1.576-1.045,2.481
	c-0.027,0.152-0.146,0.959,0.242,1.946c0.424,1.074,1.739,2.414,3.725,2.984c3.121,0.898,6.722-0.735,4.938-4.292
	c-0.001-0.001-0.001-0.003-0.01-0.021c-1.259-2.094-3.688-3.258-4.521-5.688c-0.098-0.283-0.279-1.14-0.006-1.395
	c0.566-0.528,1.342-0.093,1.95-0.419c0.069-0.434-1.804-0.887-2.019-0.938c-1.202-0.282-2.33-0.373-2.754-0.407
	c-0.18-0.013-0.42-0.028-0.6-0.04c-0.253-0.014-0.59-0.031-0.843-0.043c0.606,0.031,0.983,0.14,1.121,0.321
	c-0.136,0.284-1.661,0.272-2.989-0.24c-0.284-0.109-0.284-0.109-0.423-0.117h-0.027c-0.141,0.001-0.33,0.005-0.471,0.007
	c-0.125,0.003-0.293,0.006-0.418,0.01c-0.949,0.03-1.515,0.281-1.666,0.357C46.62,5.602,46.564,6.012,47.12,6.219z M24.432,15.046
	c0.001-0.002,0.003-0.003,0.021-0.021c5.187-5.247,7.981-6.913,19.143-9.513c1.167-0.272,1.827-0.343,2.41-0.406L45.754,5.13
	c-0.47,0.046-0.47,0.046-1.424,0.164c-0.429,0.059-1,0.145-1.428,0.21c-1.264,0.22-1.79,0.322-3.352,0.679l-0.565,0.142
	c-2.288,0.608-2.614,0.729-5.729,1.887c-7.206,2.977-15.488,9.596-15.454,11.667C18.402,20.375,20.88,18.57,24.432,15.046z
	 M67.52,9.367c0.025-0.034,0.061-0.079,0.086-0.113c-0.271-0.435-1.111-0.964-2.5-1.572c-0.146-0.064-0.688-0.296-1.467-0.582
	c-0.002-0.001-0.006-0.001-0.027-0.01c-2.791-0.991-5.311-1.486-6.934-1.726c-0.386-0.053-0.902-0.117-1.291-0.166l-0.595-0.063
	c3.247,0.349,4.489,0.926,7.489,2.319C65.82,9.1,66.823,9.39,67.52,9.367z M38.614,8.421c-0.192,1.05,2.933,0.647,5.5-1.363
	c0.136-0.106,0.136-0.106,0.618-0.532c0.001-0.001,0.001-0.001,0.011-0.009c1.33-1.258,1.5-1.419,3.332-1.557l-0.303,0.016
	c-0.231,0.013-0.539,0.033-0.77,0.048C44.038,5.253,38.877,6.984,38.614,8.421z M51.318,4.921h-0.036
	c-0.185-0.004-0.429-0.008-0.613-0.01c0.22,0.003,0.438,0.02,0.658,0.011C51.325,4.921,51.322,4.921,51.318,4.921z"/>
</svg>
