<?xml version="1.0" encoding="utf-8"?>
<!-- Generator: Adobe Illustrator 16.0.0, SVG Export Plug-In . SVG Version: 6.00 Build 0)  -->
<!DOCTYPE svg PUBLIC "-//W3C//DTD SVG 1.1//EN" "http://www.w3.org/Graphics/SVG/1.1/DTD/svg11.dtd">
<svg version="1.1" id="Layer_1" xmlns="http://www.w3.org/2000/svg" xmlns:xlink="http://www.w3.org/1999/xlink" x="0px" y="0px"
	 width="1421.873px" height="312.607px" viewBox="0 0 1421.873 312.607" enable-background="new 0 0 1421.873 312.607"
	 xml:space="preserve">
<g>
	<path opacity="0.8" fill="#FFFFFF" stroke="#FFFFFF" stroke-miterlimit="10" enable-background="new    " d="M459.987,148.485
		l65.598,101.417h-54.355l-41.352-70.066l-21.24,22.23v47.836h-42.731V38.821h42.731v105.171l54.602-60.453h58.722L459.987,148.485z
		 M668.881,132.251c4.373,10.609,6.495,22.105,6.621,34.587c-0.126,12.502-2.248,24.111-6.621,34.6
		c-4.372,10.623-10.371,19.74-18.117,27.604c-7.62,7.752-16.49,13.873-26.607,18.238c-10.123,4.252-21.114,6.498-32.735,6.498
		c-11.617,0-22.361-2.246-32.485-6.498c-10.123-4.365-18.989-10.486-26.607-18.238c-7.746-7.863-13.744-16.98-17.99-27.604
		c-4.37-10.486-6.493-22.096-6.617-34.6c0.124-12.482,2.247-23.978,6.617-34.587c4.246-10.622,10.244-19.861,17.99-27.855
		c7.618-7.868,16.484-13.99,26.607-18.358c10.124-4.373,20.868-6.622,32.485-6.746c11.62,0.124,22.612,2.373,32.735,6.746
		c10.117,4.368,18.987,10.49,26.607,18.358C658.51,112.39,664.509,121.629,668.881,132.251z M632.523,167.221
		c-0.126-9.617-1.995-18.113-5.617-25.48c-3.628-7.241-8.629-12.989-14.754-17.107c-6.114-4-12.982-6.128-20.732-6.25
		c-7.62,0.122-14.493,2.25-20.616,6.25c-6.244,4.118-11.113,9.866-14.742,17.107c-3.743,7.368-5.494,15.865-5.617,25.48
		c0.123,9.365,1.874,17.734,5.617,24.857c3.629,7.111,8.498,12.613,14.742,16.605c6.123,3.873,12.996,5.992,20.616,5.992
		c7.75,0,14.619-2.119,20.732-5.992c6.125-3.992,11.126-9.494,14.754-16.605C630.528,184.956,632.397,176.587,632.523,167.221z
		 M815.935,99.52c-5.752-6.494-12.621-11.36-20.494-14.857c-7.994-3.501-16.861-5.248-26.736-5.372
		c-8.867,0.124-16.861,1.871-24.105,5.494c-7.125,3.624-13.498,8.495-18.867,14.863V83.538h-40.733v166.363h42.733v-97.168
		c0-6.372,1.373-11.996,4.119-16.865c2.744-4.992,6.5-8.992,11.367-11.74c4.748-2.873,10.373-4.367,16.873-4.367
		c5.488,0,10.24,0.871,13.984,2.492c3.756,1.505,6.748,3.627,8.998,6.249s3.996,5.372,5.123,8.364c1.244,2.999,2,5.875,2.369,8.618
		c0.375,2.873,0.502,5.25,0.502,7.249v97.168h42.607v-97.168c0-11.118-1.498-21.107-4.625-30.104
		C826.05,113.635,821.552,106.017,815.935,99.52z M1009.702,147.234c2.258,10.863,2.881,22.982,1.635,36.101H885.651
		c1.869,6.867,4.746,12.736,8.738,17.609c3.998,4.994,8.877,8.736,14.494,11.361c5.498,2.625,11.744,3.998,18.492,3.998
		c4.746,0,9.365-0.623,13.865-2.123c4.498-1.379,8.496-3.498,12.117-6.246c3.756-2.996,6.75-6.623,9.127-10.99h45.602
		c-3.246,11.363-8.623,21.357-15.994,29.855c-7.371,8.494-16.49,15.109-27.357,19.854c-10.873,4.621-23.244,7.121-37.117,7.121
		c-11.734,0-22.855-2.373-33.102-6.744c-10.244-4.5-19.236-10.613-27.115-18.607c-7.742-8-13.984-17.113-18.357-27.605
		c-4.379-10.488-6.629-21.855-6.742-33.979c0.113-12.105,2.363-23.351,6.742-33.966c4.373-10.496,10.617-19.736,18.357-27.854
		c7.879-7.995,16.871-14.235,27.115-18.86c10.244-4.494,21.365-6.743,33.102-6.867c9.883,0,19.256,1.503,28.246,4.496
		c8.871,2.999,16.865,7.371,24.236,13.236c7.244,5.744,13.492,12.862,18.613,21.235
		C1003.71,126.755,1007.46,136.373,1009.702,147.234z M968.976,148.485c-1.744-6.491-4.615-12.111-8.492-16.858
		c-3.996-4.75-8.863-8.372-14.494-10.994c-5.623-2.498-11.863-3.748-18.611-3.87c-6.621,0.122-12.492,1.372-17.99,3.87
		c-5.375,2.622-10.123,6.244-14.119,10.994c-3.871,4.747-6.871,10.367-8.998,16.858H968.976z M1132.144,204.444
		c-3.373,3.117-7.363,5.744-11.99,7.613c-4.621,2.002-9.494,2.873-14.871,2.998c-5.984-0.125-11.486-1.377-16.609-3.748
		c-5.127-2.623-9.748-5.998-13.617-10.363c-3.877-4.379-6.869-9.492-9.119-15.242c-2.256-5.744-3.248-11.859-3.381-18.48
		c0.133-6.744,1.125-13.119,3.381-18.988c2.25-5.871,5.242-10.986,9.119-15.488c3.869-4.496,8.49-7.988,13.617-10.491
		c5.123-2.492,10.625-3.749,16.609-3.871c5.25,0.122,9.996,1.125,14.496,2.999c4.625,1.873,8.496,4.373,11.998,7.62
		c3.369,3.118,6.119,6.619,8.121,10.365h45.473c-3.244-12.49-8.619-23.23-16.111-32.224c-7.494-8.868-16.74-15.738-27.613-20.483
		c-10.744-4.874-22.99-7.245-36.361-7.369c-12.611,0.124-24.107,2.373-34.602,6.867c-10.496,4.625-19.49,10.865-27.236,18.86
		c-7.625,8.117-13.488,17.357-17.74,27.854c-4.244,10.615-6.373,21.86-6.373,33.967c0,12.121,2.129,23.488,6.373,33.979
		c4.252,10.492,10.115,19.607,17.74,27.607c7.746,7.992,16.74,14.107,27.236,18.605c10.492,4.371,21.988,6.744,34.602,6.744
		c13.498,0,25.744-2.373,36.615-7.121c10.988-4.744,20.115-11.617,27.607-20.605c7.625-8.865,12.994-19.732,16.24-32.348h-45.604
		C1138.271,197.692,1135.651,201.188,1132.144,204.444z M1376.28,83.538l-39.734,120.15l-40.729-120.15h-26.99h-18.234h-11.871
		V41.195h-42.604v42.344v37.843v58.454c0,11.369,1.625,21.734,4.746,30.852c3.125,9.117,7.873,16.734,14.24,22.98
		c6.248,6.24,14.121,10.861,23.367,13.611c9.373,2.871,19.986,3.623,32.229,2.375v-38.84c-7.115,0.494-12.988-0.254-17.734-2.129
		c-4.746-1.996-8.248-5.244-10.623-9.994c-2.371-4.615-3.623-10.865-3.623-18.607v-58.702h26.248l49.965,131.52l-4.869,12.488
		c-2.377,6.373-5.121,11.24-8.369,14.742c-3.381,3.494-7.371,5.863-12.252,7.117c-4.869,1.246-10.746,1.621-17.863,1.125v38.842
		c8.75,0.625,16.865,0.502,24.363-0.375c7.621-0.871,14.617-2.75,20.984-5.994c6.375-3.25,12.246-8.119,17.367-14.615
		c5.25-6.486,9.875-15.107,13.865-25.979l73.713-196.716L1376.28,83.538L1376.28,83.538z"/>
	<g>
		<path fill="#CD1F36" d="M208.881,293.034c-0.001,0-0.003,0.002-0.021,0.006c-17.415,6.752-24.134,7.795-26.213,7.93
			c-0.028-0.076-0.066-0.18-0.094-0.256c6.919-4.66,6.919-4.66,7.108-5.109c0.716-1.709-2.69-1.791-7.593-0.18
			c-2.736,0.896-16.659,8.113-16.8,8.188c0.001,0,0.003,0,0.02,0c-0.024,0.029-0.058,0.068-0.082,0.1
			c0.491,0.053,0.985-0.018,1.477,0.021c-0.319,0.059-0.495,0.092-1.458,0.178c1.611-0.137,1.611-0.137,4.584-0.449
			c2.183-0.25,2.183-0.25,6.437-0.871c3.728-0.594,3.976-0.646,10.337-1.992c9.437-2.33,11.172-2.945,20.807-6.363l2.304-0.914
			c3.97-1.648,4.336-1.926,4.844-2.307c-0.08,0.01-0.188,0.027-0.267,0.039C213.889,291.159,213.1,291.382,208.881,293.034z"/>
		<path fill="#FECF09" d="M141.113,294.716c-0.918,0.004-3.358,0.012-4.919,1.227c-0.004,0-0.009,0-0.05-0.002
			c-1.718,1.549,1.13,4.979-1.544,5.635c-2.3,0.564-7.903-0.773-12.38-2.215c-5.416-1.742-10.564-4.211-16.009-5.869
			c-3.389-1.033-3.822-0.594-4.138-0.271c0.992,2.225,12.604,7.16,27.845,9.535c0,0,0.001,0,0.014,0.002
			c2.835,0.443,7.893,0.984,9.971,1.174l1.105,0.086c0.931,0.07,1.136,0.084,3.095,0.199c0.53,0.027,1.237,0.061,1.767,0.086
			c-0.279-0.021-0.651-0.098-0.911-0.205c1.496-0.393,3.087,0.143,4.561-0.471c1.509-0.627,1.871-1.773,1.956-2.236
			C151.933,298.907,148.587,295.21,141.113,294.716z"/>
		<path fill="#5350A2" d="M228.18,283.048c0.001,0,0.003,0,0.024-0.004c-0.329,0.287-0.33,0.381-0.332,0.699
			c0.385,0.023,0.755-0.156,1.144-0.082c-0.177,0.195-0.47,0.402-0.689,0.551c9.463-5.625,10.189-6.191,22.315-15.646
			c8.57-7.689,9.023-9.611,8.958-10.02C259.069,255.268,230.159,280.491,228.18,283.048z"/>
		<path fill="#5DC9E0" d="M178.545,291.098c7.335-3.695,15.904-2.805,23.297-6.279c0.388-0.184,0.911-0.418,1.291-0.615
			c1.583-0.822,6.399-3.33,10.582-7.586c5.792-5.896,8.28-14.217-2.111-14.506c-3.328,0.24-6.657,1.275-9.897,3.082
			c-0.007,0-0.014,0-0.081,0.002c-8.802,5.006-15.666,13.336-26.244,15.295c-4.325,0.801-12.706,0.996-20.25-6.688
			c-4.75-4.838-14.631-14.904-26.793-8.629c-10.34,5.332-4.39,17.967,7.159,21.873c0.005,0,0.011,0,0.068,0.002
			c6.731,3.617,15.47-0.562,21.559,5.551c3.816,3.832,3.889,3.904-4.234,11.842l0.556-0.004c0.545,0,1.201-0.012,2.506-0.037
			c0.402-0.008,0.94-0.023,1.344-0.035c0.807-0.031,2.155-0.084,4.104-0.545c0.003-0.002,0.006-0.002,0.038-0.01
			c2.387-0.707,2.806-1.002,4.972-3.484C171.024,295.038,177.33,291.71,178.545,291.098z"/>
		<path fill="#71BF45" d="M125.648,302.093l1.521,0.262c-0.658-0.109-1.311-0.227-1.96-0.348
			C125.358,302.036,125.494,302.063,125.648,302.093z"/>
		<path fill="#71BF45" d="M125.209,302.007c-0.759-0.139-1.511-0.289-2.257-0.441C123.615,301.694,124.36,301.843,125.209,302.007z"
			/>
		<path fill="#71BF45" d="M86.941,286.083c0.058-0.152,0.136-0.355,0.194-0.508c1.866-0.805,5.291,1.336,5.838-1.449
			c0.417-2.125-2.301-5.994-3.959-8.113c-3.066-3.918-13.158-14.438-22.917-16.059c-1.077-0.049-3.314-0.148-3.625,2.209
			c-0.003,0-0.009,0-0.05-0.006c-0.048,5.271,5.872,7.939,5.774,13.232c-2.205,1.693-11.706-4.668-23.643-15.828
			c12.458,12.195,19.798,16.906,30.906,24.039c10.694,5.971,20.774,10.461,30.819,13.729l8.161,2.34
			c3.473,0.877,4.417,1.096,8.513,1.896C103.671,297.63,88.731,289.907,86.941,286.083z"/>
		<path fill="#FECF09" d="M287.415,211.216c-1.499,0.322-3.381,1.715-5.595,4.139c-0.003,0-0.007,0.002-0.042,0.006
			c-4.5,4.967-7.9,10.836-12.75,15.516c-5.082,4.902-7.521,5.77-10.346,6.77c-3.877,1.373-10.856,2.018-14.039-9.123
			c-2.326-8.145-4.963-17.375-18.567-12.822c-17.94,6.004-23.986,28.756-12.676,34.65c0.006,0,0.014,0,0.083-0.002
			c0.009,0.016,1.418,1.508,6.953,1.57c7.317,0.082,10.834,0.754,12.338,4.514c1.03,2.578,0.38,9.766-9.457,18.516
			c-3.694,3.285-8.084,6.115-10.444,7.635c-0.148,0.096-14.95,10.178-15.629,12.787c1.919,0.775,14.06-3.727,23.596-9.887
			c0.006-0.006,0.014-0.01,0.083-0.055c1.479-0.994,2.578-1.754,4.336-3.174c10.426-8.424,18.567-19.258,29.093-27.578
			c4.995-3.949,11.555-5.191,16.355-9.473c4.929-4.395,9.386-11.285,11.073-14.045C286.565,223.343,291.662,211.6,287.415,211.216z"
			/>
		<path fill="#5350A2" d="M119.283,253.483c7.24-1.922,15.116,0.033,22.07-3.627c7.547-3.973,9.428-9.971,9.877-13.191
			c1.138-8.156-5.406-20.779-23.064-21.969c-1.883,0.039-7.613,0.156-12.519,3.703c-0.01,0-0.02,0-0.116-0.002
			c-7.504,5.703-8.585,17.449-19.112,20.307c-6.637,1.801-16.886,1.959-28.017-7.516c-5.075-4.316-8.634-10.178-14.214-13.982
			c-2.187-1.492-7.309-4.984-11.679-3.678c-11.751,3.523-1.078,26.73,13.01,34.365c0.004,0,0.009,0,0.058,0.006
			c0.02,0.018,2.271,1.682,6.846,2.295c5.764,0.775,12.939,1.738,23.724,11.33c9.029,8.031,12.193,14.625,14.268,20.555
			c0.502,1.436,1.596,3.504,5.632,6.773c0.314,0.254,0.748,0.576,1.076,0.814c5.083,3.682,11.955,6.391,15.661,6.887
			c6.072,0.812,5.266-3.771,1.945-8.375c-0.002-0.004-0.005-0.008-0.033-0.053c-5.055-6.52-14.127-9.771-15.6-19.199
			C107.826,260.809,111.254,255.614,119.283,253.483z"/>
		<path fill="#F26822" d="M299.944,151.871c-6.447-1.354-13.365,33.028-8.411,41.807c0.002,0,0.006,0,0.039-0.004
			c0.266,3.123,4.968,1.148,5.087,4.283c0.124,3.229-2.133,9.387-3.814,13.49c1.009-2.387,1.974-4.803,2.863-7.25
			c1.052-2.895,2.018-5.832,2.894-8.807c0.877-2.975,1.667-5.988,2.365-9.037c0.698-3.051,1.304-6.135,1.815-9.252
			C302.807,176.862,304.939,152.92,299.944,151.871z"/>
		<path fill="#F26822" d="M292.844,211.448c-0.183,0.436-0.355,0.873-0.542,1.303C292.472,212.35,292.656,211.911,292.844,211.448z"
			/>
		<path fill="#71BF45" d="M217.999,199.425c7.746-2.455,16.438-0.881,23.661-5.561c5.492-3.557,9.579-9.854,10.933-16.842
			c1.529-7.896-0.696-24.63-17.335-25.953c-1.675,0.062-6.773,0.258-11.931,4.515c-0.009,0-0.02,0-0.115,0.001
			c-10.477,8.871-16.084,23.472-31.388,26.664c-3.302,0.688-20.493,3.303-34.712-12.883c-11.104-12.64-19.874-22.622-36.4-15.596
			c-18.769,7.981-18.32,34.458,0.715,42.284c0.011,0,0.021,0,0.127,0c0.021,0.021,3.023,2.117,11.882,2.539
			c9.888,0.469,24.83,1.176,32.748,14.023c7.978,12.943,3.443,22.371-2.646,30.633c-6.744,9.146-2.64,16.676-1.749,18.094
			c8.178,13,31.2,6.439,35.191-10.029c0.002-0.008,0.004-0.016,0.025-0.086c1.668-9.969-5.631-19.471-1.54-29.562
			C198.667,213.762,205.177,203.493,217.999,199.425z"/>
		<path fill="#895981" d="M46.268,247.466c-0.005-0.006-0.01-0.012-0.057-0.082c-14.343-19.682-30.599-41.988-16.579-49.764
			c4.671-2.592,10.817-0.232,14.999-4.469c4.671-4.73,5.591-11.488,5.539-16.326c-0.105-9.682-5.535-24.555-16.856-25.731
			c-1.31,0.07-4.788,0.254-7.82,4.355c-0.006,0-0.011,0-0.069,0c-4.765,6.752-4.039,15.715-9.009,22.383
			c-1.215,1.631-5.564,6.338-10.544-1.541C1.145,168.817,1.995,160.005,0,151.874v0.342c0.408,19.689,2.286,27.232,6.027,42.265
			c4.258,5.127,17.631,32.84,17.766,33.117c16.735,34.812,29.705,35.48,29.828,35.473C54.375,261.934,54.432,259.081,46.268,247.466
			z"/>
		<path fill="#895981" d="M299.91,133.566c0.896-2.221,1.286-7.898-0.57-16.596c-1.734-8.123-6.458-21.632-11.747-23.299
			c-0.685-0.017-1.961-0.044-2.772,3.313c-0.003,0-0.007-0.001-0.043-0.004c-1.047,5.276-0.181,10.734-1.518,15.984
			c-0.796,3.129-3.062,5.6-4.105,6.102c-3.879,1.868-11.997,3.259-22.786-8.407c-19.631-21.226-20.005-21.632-29.522-18.364
			c-16.239,5.574-14.278,32.396,2.996,40.999c0.01,0,0.018,0,0.104,0c0.014,0.021,2.687,2.216,9.973,2.677
			c30.025,1.904,28.033,29.026,27.329,34.442c-1.054,8.109-4.308,13.76-7.179,18.746c-2.993,5.193-7.809,19.336-2.623,27.508
			c5.618,8.852,20.197-0.119,24.884-19.295c0.003-0.01,0.005-0.02,0.03-0.113c3.721-18.475-3.799-38.383,7.141-55.935
			C291.958,137.381,298.013,138.263,299.91,133.566z"/>
		<path fill="#CD1F36" d="M43.772,92.892c-15.192,1.76-24.685,31.646-13.022,40.999c0.005,0,0.012,0,0.074-0.002
			c0.006,0.021,1.418,2.113,6.908,2.443c7.517,0.448,17.811,1.064,24.876,19.934c5.307,14.174,1.383,25.446-0.725,31.502
			c-2.729,7.84-0.553,14.814,0.988,18.273c0.239,0.539,0.597,1.234,0.856,1.764c0.272,0.549,2.804,5.488,8.142,9.381
			c13.385,9.758,31.075,1.625,28.066-18.055c-0.001-0.01-0.001-0.02-0.012-0.117c-2.827-12.6-13.717-22.688-11.465-36.867
			c0.73-4.602,4.428-20.016,21.311-25.117c9.461-2.857,19.907-0.686,28.948-5.681c9.894-5.466,12.003-13.845,12.452-17.193
			c1.256-9.388-5.064-23.022-23.043-23.942c-2.086,0.08-7.627,0.291-13.358,4.048c-0.01,0-0.02,0-0.119,0.001
			c-10.064,6.874-15.63,18.916-27.395,23.836c-0.132,0.056-14.153,4.802-23.79-2.427C55.246,109.505,57.871,91.259,43.772,92.892z"
			/>
		<path fill="#71BF45" d="M278.467,76.855c0.002,0,0.005,0.001,0.036,0.005c0.012,0.019,1.858,1.858,4.05,2.533
			c1.941,0.597,5.499,1.692,11.736,17.13c-0.911-2.317-1.863-4.615-2.883-6.876c-1.258-2.787-2.597-5.527-4.015-8.221
			c-1.417-2.692-2.912-5.334-4.483-7.926c-1.57-2.59-3.213-5.131-4.93-7.615c-6.589-9.266-17.296-20.698-19.932-20.333
			C254.016,46.109,270.922,70.765,278.467,76.855z"/>
		<path fill="#5DC9E0" d="M212.69,76.418c6.368-1.967,13.671,0.678,19.5-3.951c3.309-2.629,4.076-7.661,2.002-13.131
			c-2.616-6.903-11.59-17.188-23.35-18.437c-2.156-0.017-4.67,0.162-7.228,2.496c-0.006-0.001-0.014-0.001-0.083-0.003
			c-3.947,4.149-4.553,10.311-8.646,14.371c-0.764,0.756-3.232,2.641-9.652,3.778c-0.676,0.12-16.709,2.794-29.341-9.701
			c-8.906-8.811-15.341-15.173-28.252-9.283c-15.211,6.941-17.127,24.842-3.254,30.405c0.009,0,0.02,0,0.113-0.001
			c0.011,0.018,2.429,1.776,10.495,2.033c8.627,0.271,28.832,0.909,35.694,21.512c5.991,17.992-15.487,33.294-5.057,51.72
			c0.52,0.919,2.382,3.443,4.526,5.389c15.256,13.842,41.246,4.395,39.188-19.694c0-0.01-0.001-0.021-0.005-0.125
			c-2.018-12.744-12.761-22.612-11.962-36.285C197.416,96.829,198.514,80.798,212.69,76.418z"/>
		<path fill="#F26822" d="M18.954,134.813c0-0.01,0.001-0.02,0.012-0.12c0.317-7.543-0.813-15.073-0.188-22.619
			c0.352-4.244,2.366-9.828,3.028-11.663c0.058-0.159,6.218-16.102,17.221-21.323c5.323-2.526,11.597-2.113,16.669-5.407
			c6.808-4.422,10.956-10.512,12.823-13.747c3.169-5.495,7.004-16.849-1.365-16.876c-0.991,0.129-3.625,0.473-7.98,3.363
			c-0.004,0.001-0.009,0.001-0.052,0.005c-1.493,1.019-3.54,2.413-7.559,6.23c-7.896,7.502-14.132,13.428-18.713,14.089
			c-3.167,0.458-4.636-1.984,6.356-16.221c-10.743,12.166-15.565,20.5-21.671,31.052c0.353,1.854-2.594,15.249-10.254,39.211
			c-8.496,26.578-0.548,37.505-0.462,37.601C10.732,162.667,17.553,154.654,18.954,134.813z"/>
		<path fill="#CD1F36" d="M215.683,14.697c6.805,4.755,10.912,7.624,10.227,9.909c-4.567,1.886-15.912-4.312-23.419-8.415
			c-10.966-5.99-15.067-5.603-16.322-5.157c-5.573,1.978,3.277,14.84,15.304,19.35c0.005,0,0.012,0.001,0.07,0.002
			c0.012,0.013,2.483,1.29,7.355,1.747c22.862,2.151,35.003,22.521,36.839,29.699c1.908,7.46,1.494,15.468,5.317,22.474
			c4.772,8.743,11.095,13.468,15.059,14.858c7.601,2.665,13.855-4.098,5.956-20.362c-0.004-0.009-0.009-0.017-0.049-0.101
			c-4.392-8.208-10.994-14.783-16.42-22.226c-15.487-21.239-9.759-21.064-7.876-21.009c0.073-0.119,0.169-0.277,0.242-0.396
			c-1.463-2.806-8.906-8.003-11.152-9.528c-9.509-6.46-19.259-11.05-22.134-11.966c-0.065,0.052-0.153,0.12-0.219,0.173
			c0.478,0.397,0.577,0.481,1.246,0.951C215.704,14.701,215.703,14.701,215.683,14.697z"/>
		<path fill="#FECF09" d="M67.946,77.547c-0.854,2.413-3.455,9.753,0.993,15.897c7.829,10.814,31.936,4.423,35.195-17.266
			c0.002-0.009,0.002-0.018,0.02-0.104c0.539-8.43-5.507-16.453-1.541-25.094c2.071-4.512,8.335-15.384,21.735-18.896
			c6.295-1.649,13.059-0.671,19.157-3.424c4.347-1.962,7.282-5.24,7.852-8.768c0.509-3.147-1.343-9.735-10.314-10.003
			c-0.945,0.041-3.457,0.15-6.727,1.622c-0.005,0-0.01,0-0.057,0.001c-8.597,3.976-15.486,11.629-25.777,11.95
			c-6.083,0.188-6.899-1.676-7.337-2.678c-1.528-3.494,3.766-4.913,2.529-8.319c-0.126-0.058-0.286-0.16-0.42-0.194
			c-5.375-1.411-32.701,14.642-29.583,20.583c0.003,0,0.008-0.001,0.048-0.005c-0.012,0.018-0.027,0.038-0.04,0.057
			c3.442,3.419,10.546-1.429,12.413,4.512c0.817,2.6,2.008,9.795-4.56,20.471C77.354,64.684,70.701,69.769,67.946,77.547z"/>
		<path fill="#5350A2" d="M66.777,26.359c-0.956,0.655-2.22,1.546-3.165,2.218l6.394-4.376
			C69.034,24.842,67.739,25.701,66.777,26.359z"/>
		<path fill="#895981" d="M181.097,2.689c0.462,0.097,0.969,0.199,1.494,0.307C182.093,2.893,181.603,2.787,181.097,2.689z"/>
		<path fill="#895981" d="M202.354,8.359c-1.352-0.445-2.725-0.825-4.078-1.266c-0.012-0.002-0.014-0.002-0.015-0.003
			c-2.2-0.668-5.615-1.704-9.701-2.733c4.465,1.192,9.781,2.734,13.874,4.029C202.41,8.378,202.377,8.366,202.354,8.359z"/>
		<path fill="#895981" d="M186.584,3.838c-0.801-0.183-1.738-0.378-2.677-0.573c1.623,0.353,3.179,0.721,4.652,1.091
			C187.879,4.176,187.219,4.001,186.584,3.838z"/>
		<path fill="#F26822" d="M141.905,4.419c0.002,0,0.006,0,0.04-0.001c-0.001,0.007-0.004,0.016-0.005,0.021
			c4.672,1.622,10.085-0.021,14.376,3.272c2.003,1.539,7.325,5.624,5.651,12.104c-0.766,2.967-2.978,5.32-3.53,8.375
			c-0.093,0.514-0.491,3.24,0.821,6.57c1.43,3.626,5.87,8.148,12.569,10.076c10.538,3.032,22.692-2.485,16.675-14.49
			c-0.003-0.005-0.005-0.012-0.033-0.07c-4.246-7.07-12.447-11-15.264-19.205c-0.328-0.956-0.942-3.849-0.019-4.709
			c1.915-1.784,4.527-0.315,6.588-1.416c0.233-1.465-6.092-2.996-6.813-3.167c-4.061-0.953-7.867-1.26-9.299-1.375
			c-0.607-0.044-1.417-0.096-2.025-0.135c-0.853-0.047-1.99-0.104-2.842-0.144c2.049,0.104,3.322,0.47,3.782,1.083
			c-0.452,0.957-5.608,0.917-10.088-0.811c-0.958-0.369-0.958-0.369-1.427-0.397l-0.091,0.001c-0.477,0.005-1.114,0.016-1.591,0.022
			c-0.424,0.01-0.99,0.024-1.414,0.034c-3.203,0.105-5.114,0.949-5.623,1.207C140.217,2.335,140.025,3.72,141.905,4.419z"/>
		<path fill="#71BF45" d="M65.307,34.217c0.006-0.006,0.012-0.012,0.074-0.071c17.51-17.712,26.944-23.339,64.625-32.117
			c3.938-0.917,6.168-1.158,8.135-1.371l-0.853,0.081c-1.588,0.156-1.588,0.156-4.806,0.553c-1.448,0.196-3.375,0.487-4.82,0.709
			c-4.266,0.741-6.043,1.088-11.316,2.292l-1.908,0.476c-7.724,2.053-8.824,2.461-19.341,6.369
			C70.771,21.189,42.81,43.533,42.925,50.525C44.953,52.209,53.318,46.114,65.307,34.217z"/>
		<path fill="#FECF09" d="M210.769,15.045c0.087-0.114,0.202-0.267,0.29-0.38c-0.91-1.471-3.75-3.255-8.441-5.308
			c-0.496-0.217-2.319-0.999-4.951-1.965c-0.007-0.003-0.016-0.005-0.092-0.034c-9.421-3.346-17.926-5.014-23.402-5.823
			c-1.306-0.182-3.052-0.396-4.361-0.56l-2.007-0.214c10.961,1.177,15.154,3.125,25.283,7.83
			C205.041,14.144,208.419,15.122,210.769,15.045z"/>
		<path fill="#895981" d="M113.187,11.853c-0.649,3.546,9.9,2.186,18.566-4.6c0.46-0.361,0.46-0.361,2.087-1.797
			c0.003-0.003,0.005-0.005,0.036-0.031c4.489-4.248,5.066-4.793,11.248-5.258L144.1,0.22c-0.779,0.044-1.818,0.11-2.597,0.163
			C131.5,1.157,114.076,7.001,113.187,11.853z"/>
		<path fill="#5DC9E0" d="M156.079,0.036l-0.124-0.003c-0.621-0.014-1.448-0.024-2.069-0.033c0.741,0.012,1.48,0.068,2.223,0.038
			C156.1,0.037,156.087,0.037,156.079,0.036z"/>
	</g>
</g>
</svg>
