<?xml version="1.0" encoding="utf-8"?>
<!-- Generator: Adobe Illustrator 16.0.0, SVG Export Plug-In . SVG Version: 6.00 Build 0)  -->
<!DOCTYPE svg PUBLIC "-//W3C//DTD SVG 1.1//EN" "http://www.w3.org/Graphics/SVG/1.1/DTD/svg11.dtd">
<svg version="1.1" id="Layer_1" xmlns="http://www.w3.org/2000/svg" xmlns:xlink="http://www.w3.org/1999/xlink" x="0px" y="0px"
	 width="1058.874px" height="288.786px" viewBox="0 0 1058.874 288.786" enable-background="new 0 0 1058.874 288.786"
	 xml:space="preserve">
<g>
	<path opacity="0.8" fill="#686868" stroke="#FFFFFF" stroke-miterlimit="10" enable-background="new    " d="M96.989,109.664
		l65.598,101.417h-54.354L66.88,141.014l-21.24,22.23v47.836H2.909V0h42.73v105.171l54.603-60.453h58.722L96.989,109.664z
		 M305.883,93.429c4.373,10.609,6.495,22.105,6.621,34.587c-0.126,12.502-2.248,24.111-6.621,34.601
		c-4.372,10.623-10.371,19.74-18.117,27.604c-7.62,7.752-16.489,13.873-26.606,18.238c-10.123,4.252-21.114,6.498-32.735,6.498
		c-11.617,0-22.361-2.246-32.484-6.498c-10.123-4.365-18.989-10.486-26.607-18.238c-7.746-7.862-13.744-16.979-17.99-27.604
		c-4.37-10.486-6.493-22.097-6.617-34.601c0.124-12.481,2.247-23.978,6.617-34.587c4.246-10.622,10.244-19.86,17.99-27.854
		c7.618-7.868,16.484-13.99,26.607-18.358c10.123-4.373,20.867-6.622,32.484-6.746c11.62,0.124,22.612,2.373,32.735,6.746
		c10.117,4.368,18.986,10.49,26.606,18.358C295.512,73.569,301.511,82.807,305.883,93.429z M269.525,128.4
		c-0.126-9.617-1.995-18.113-5.617-25.48c-3.628-7.241-8.629-12.989-14.754-17.107c-6.114-4-12.982-6.128-20.732-6.25
		c-7.62,0.122-14.493,2.25-20.616,6.25c-6.244,4.118-11.112,9.866-14.742,17.107c-3.742,7.368-5.493,15.865-5.616,25.48
		c0.123,9.364,1.874,17.733,5.616,24.856c3.63,7.111,8.498,12.613,14.742,16.605c6.123,3.873,12.996,5.991,20.616,5.991
		c7.75,0,14.619-2.118,20.732-5.991c6.125-3.992,11.126-9.494,14.754-16.605C267.53,146.135,269.398,137.765,269.525,128.4z
		 M452.937,60.699c-5.752-6.494-12.62-11.36-20.493-14.857c-7.994-3.501-16.861-5.248-26.736-5.372
		c-8.867,0.124-16.861,1.871-24.105,5.494c-7.125,3.624-13.498,8.495-18.866,14.863v-16.11h-40.733V211.08h42.733v-97.168
		c0-6.372,1.373-11.996,4.118-16.865c2.744-4.992,6.5-8.992,11.367-11.74c4.748-2.873,10.373-4.367,16.873-4.367
		c5.488,0,10.24,0.871,13.984,2.492c3.756,1.505,6.748,3.627,8.998,6.249s3.996,5.372,5.123,8.364c1.244,2.999,2,5.875,2.369,8.618
		c0.375,2.873,0.502,5.25,0.502,7.249v97.168h42.606v-97.168c0-11.118-1.498-21.107-4.625-30.104
		C463.052,74.813,458.554,67.196,452.937,60.699z M646.704,108.413c2.258,10.863,2.881,22.981,1.635,36.101H522.653
		c1.868,6.867,4.745,12.736,8.737,17.609c3.998,4.994,8.877,8.736,14.494,11.361c5.498,2.625,11.744,3.998,18.492,3.998
		c4.746,0,9.365-0.623,13.865-2.123c4.498-1.38,8.496-3.498,12.117-6.246c3.756-2.996,6.75-6.623,9.127-10.99h45.602
		c-3.246,11.363-8.623,21.356-15.994,29.854c-7.371,8.494-16.49,15.109-27.356,19.854c-10.873,4.621-23.244,7.121-37.117,7.121
		c-11.734,0-22.855-2.373-33.103-6.744c-10.244-4.5-19.235-10.613-27.114-18.607c-7.742-8-13.984-17.112-18.357-27.604
		c-4.379-10.488-6.629-21.855-6.742-33.979c0.113-12.104,2.363-23.351,6.742-33.966c4.373-10.496,10.617-19.735,18.357-27.854
		c7.879-7.995,16.87-14.235,27.114-18.86c10.244-4.494,21.365-6.743,33.103-6.867c9.883,0,19.256,1.503,28.246,4.496
		c8.871,2.999,16.864,7.371,24.235,13.236c7.244,5.744,13.492,12.861,18.613,21.234C640.712,87.933,644.462,97.552,646.704,108.413z
		 M605.978,109.664c-1.743-6.491-4.614-12.111-8.491-16.858c-3.996-4.75-8.863-8.372-14.494-10.994
		c-5.623-2.498-11.863-3.748-18.611-3.869c-6.621,0.121-12.492,1.371-17.99,3.869c-5.375,2.622-10.123,6.244-14.119,10.994
		c-3.87,4.747-6.87,10.367-8.998,16.858H605.978z M769.146,165.623c-3.373,3.117-7.363,5.744-11.99,7.613
		c-4.621,2.002-9.494,2.873-14.871,2.998c-5.984-0.125-11.486-1.377-16.609-3.748c-5.127-2.623-9.748-5.998-13.617-10.363
		c-3.877-4.379-6.868-9.492-9.118-15.242c-2.257-5.744-3.248-11.859-3.382-18.479c0.134-6.744,1.125-13.119,3.382-18.988
		c2.25-5.871,5.241-10.986,9.118-15.488c3.869-4.496,8.49-7.988,13.617-10.491c5.123-2.491,10.625-3.749,16.609-3.871
		c5.25,0.122,9.996,1.125,14.496,2.999c4.625,1.873,8.496,4.373,11.998,7.62c3.369,3.118,6.119,6.619,8.121,10.365h45.473
		c-3.244-12.49-8.619-23.229-16.111-32.224c-7.494-8.868-16.739-15.738-27.612-20.483c-10.744-4.874-22.99-7.245-36.361-7.369
		c-12.611,0.124-24.107,2.373-34.603,6.867c-10.495,4.625-19.489,10.865-27.235,18.86c-7.625,8.116-13.488,17.356-17.74,27.854
		c-4.244,10.615-6.373,21.86-6.373,33.967c0,12.121,2.129,23.488,6.373,33.979c4.252,10.492,10.115,19.606,17.74,27.606
		c7.746,7.992,16.74,14.107,27.235,18.605c10.492,4.371,21.988,6.744,34.603,6.744c13.498,0,25.744-2.373,36.615-7.121
		c10.987-4.744,20.114-11.617,27.606-20.605c7.625-8.864,12.994-19.731,16.24-32.348h-45.604
		C775.273,158.871,772.653,162.367,769.146,165.623z M1013.282,44.717l-39.734,120.15l-40.729-120.15h-26.99h-18.234h-11.871V2.374
		H833.12v42.344V82.56v58.454c0,11.369,1.625,21.734,4.746,30.853c3.125,9.117,7.873,16.733,14.239,22.979
		c6.248,6.24,14.121,10.861,23.367,13.611c9.373,2.871,19.986,3.623,32.229,2.375v-38.84c-7.115,0.494-12.988-0.254-17.734-2.129
		c-4.746-1.996-8.248-5.244-10.623-9.994c-2.371-4.615-3.623-10.865-3.623-18.607V82.56h26.248l49.965,131.521l-4.869,12.488
		c-2.377,6.373-5.12,11.239-8.368,14.741c-3.382,3.494-7.371,5.863-12.252,7.117c-4.869,1.246-10.746,1.621-17.863,1.125v38.842
		c8.75,0.625,16.865,0.503,24.363-0.375c7.62-0.87,14.616-2.75,20.983-5.993c6.375-3.25,12.246-8.119,17.367-14.615
		c5.25-6.486,9.875-15.107,13.865-25.979l73.713-196.716L1013.282,44.717L1013.282,44.717z"/>
</g>
</svg>
