<?xml version="1.0" encoding="utf-8"?>
<!-- Generator: Adobe Illustrator 16.0.0, SVG Export Plug-In . SVG Version: 6.00 Build 0)  -->
<!DOCTYPE svg PUBLIC "-//W3C//DTD SVG 1.1//EN" "http://www.w3.org/Graphics/SVG/1.1/DTD/svg11.dtd">
<svg version="1.1" id="Layer_1" xmlns="http://www.w3.org/2000/svg" xmlns:xlink="http://www.w3.org/1999/xlink" x="0px" y="0px"
	 width="100px" height="70px" viewBox="310 217 100 70" enable-background="new 310 217 100 70" xml:space="preserve">
<rect x="310" y="217" fill="#009B3A" width="100" height="69.999"/>
<path fill="#FEDF00" d="M318.497,252l41.502,26.5l41.502-26.5l-41.502-26.502L318.497,252z"/>
<path fill="#002776" d="M359.999,234.503c9.663,0,17.504,7.835,17.504,17.497c0,9.662-7.841,17.5-17.504,17.5
	c-9.662,0-17.498-7.839-17.498-17.5C342.501,242.338,350.337,234.503,359.999,234.503z"/>
<g>
	<defs>
		<path id="SVGID_1_" d="M359.999,234.503c9.663,0,17.504,7.835,17.504,17.497c0,9.662-7.841,17.5-17.504,17.5
			c-9.662,0-17.498-7.839-17.498-17.5C342.501,242.338,350.337,234.503,359.999,234.503z"/>
	</defs>
	<clipPath id="SVGID_2_">
		<use xlink:href="#SVGID_1_"  overflow="visible"/>
	</clipPath>
	<path clip-path="url(#SVGID_2_)" fill="#FFFFFF" d="M307.5,286.999c0-23.471,19.028-42.499,42.501-42.499
		c23.471,0,42.5,19.028,42.5,42.499h-2.499c0-22.091-17.91-39.998-40.001-39.998c-22.093,0-40.001,17.907-40.001,39.998H307.5z"/>
</g>
</svg>
